<svg width="87" height="64" viewBox="0 0 87 64" fill="none" xmlns="http://www.w3.org/2000/svg">
<rect width="87" height="64" fill="#F9F0E5"/>
<path d="M7.808 57.352C7.33867 57.352 6.976 57.224 6.72 56.968C6.29333 56.4987 6.08 56.0507 6.08 55.624C6.08 55.4107 6.144 55.176 6.272 54.92C6.35733 54.7067 6.50667 54.408 6.72 54.024C6.976 53.64 7.18933 53.2987 7.36 53C7.488 52.7867 7.63733 52.6373 7.808 52.552C7.97867 52.4667 8.10667 52.36 8.192 52.232C8.23467 52.1893 8.40533 51.9333 8.704 51.464C9.00267 50.952 9.32267 50.376 9.664 49.736C10.048 49.0533 10.3893 48.4347 10.688 47.88C10.9867 47.3253 11.1787 46.984 11.264 46.856C11.52 46.7707 11.6693 46.6213 11.712 46.408C11.7973 46.1947 11.8613 46.0027 11.904 45.832C11.9893 45.576 12.2027 45.2773 12.544 44.936C12.8853 44.5947 13.12 44.1893 13.248 43.72C13.12 43.5067 13.12 43.4213 13.248 43.464C13.4187 43.5067 13.4827 43.464 13.44 43.336L13.568 43.08C13.8667 42.8667 14.08 42.5893 14.208 42.248C14.3787 41.9067 14.4853 41.5867 14.528 41.288C14.7413 41.032 14.976 40.776 15.232 40.52C15.488 40.264 15.68 39.9867 15.808 39.688C15.8507 39.6027 15.8507 39.5387 15.808 39.496C15.808 39.4107 15.8293 39.3467 15.872 39.304V39.24C16.5973 38.0027 17.3227 36.68 18.048 35.272C18.816 33.864 19.456 32.4347 19.968 30.984C20.48 29.4907 20.736 28.0827 20.736 26.76C20.736 25.5653 20.4373 24.5627 19.84 23.752C19.712 23.752 19.584 23.752 19.456 23.752C19.328 23.7093 19.2213 23.688 19.136 23.688C18.9653 23.6453 18.6453 23.6027 18.176 23.56C17.7493 23.5173 17.3227 23.4533 16.896 23.368C16.512 23.2827 16.2987 23.24 16.256 23.24C16.0853 23.1973 15.8933 23.176 15.68 23.176C15.4667 23.1333 15.232 23.112 14.976 23.112C14.6773 23.112 14.3573 23.1333 14.016 23.176C13.7173 23.2187 13.44 23.2827 13.184 23.368L11.456 23.56C11.328 23.5173 11.0933 23.496 10.752 23.496C9.856 23.496 8.832 23.6453 7.68 23.944C6.528 24.2 5.76 24.4773 5.376 24.776L4.928 25.096C4.8 25.1813 4.62933 25.2453 4.416 25.288C4.20267 25.3307 4.01067 25.3947 3.84 25.48C3.41333 25.6507 3.02933 25.608 2.688 25.352C2.38933 25.096 2.24 24.7973 2.24 24.456C2.24 24.1147 2.41067 23.816 2.752 23.56C3.69067 22.8347 4.69333 22.2587 5.76 21.832C6.82667 21.3627 7.936 20.9787 9.088 20.68C9.17333 20.6373 9.28 20.5947 9.408 20.552C9.57867 20.5093 9.728 20.488 9.856 20.488C10.3253 20.488 10.624 20.488 10.752 20.488C10.88 20.4453 11.136 20.3813 11.52 20.296L11.584 20.232C11.7547 20.232 11.8827 20.2533 11.968 20.296H12.16C12.3733 20.2107 12.5653 20.1253 12.736 20.04C12.9493 19.9547 13.1627 20.0187 13.376 20.232L14.272 20.168C14.5707 20.168 14.8053 20.232 14.976 20.36C17.4507 20.744 19.264 21.704 20.416 23.24C20.5867 23.24 20.7147 23.2187 20.8 23.176C21.0987 23.2187 21.4187 23.304 21.76 23.432C22.1013 23.56 22.4213 23.688 22.72 23.816C23.0187 23.8587 23.2747 23.9013 23.488 23.944C23.7013 23.9867 23.9147 24.0507 24.128 24.136L25.024 24.584C25.1093 24.84 25.216 24.9893 25.344 25.032C25.472 25.0747 25.6427 25.1813 25.856 25.352C26.0267 25.4373 26.1333 25.5653 26.176 25.736C26.2613 25.864 26.3467 26.0133 26.432 26.184C26.4747 26.2267 26.496 26.3333 26.496 26.504C26.496 26.632 26.496 26.7173 26.496 26.76C26.4107 27.1013 26.304 27.272 26.176 27.272C25.9627 27.272 25.7707 27.1013 25.6 26.76C25.1733 26.0773 24.832 25.5867 24.576 25.288C24.32 24.9893 23.68 24.712 22.656 24.456C22.6133 24.456 22.4213 24.4133 22.08 24.328C21.7387 24.2427 21.5467 24.1787 21.504 24.136C21.376 24.136 21.184 24.0933 20.928 24.008C21.44 25.0747 21.696 26.248 21.696 27.528C21.696 27.7413 21.6747 27.976 21.632 28.232C21.632 28.488 21.6107 28.744 21.568 29C21.312 29.1707 21.184 29.3627 21.184 29.576C21.184 29.6613 21.184 29.768 21.184 29.896C21.2267 29.9813 21.2693 30.088 21.312 30.216C21.312 30.344 21.2907 30.472 21.248 30.6C21.248 30.6853 21.2267 30.792 21.184 30.92C21.0133 31.048 20.9067 31.2187 20.864 31.432C20.8213 31.6453 20.8213 31.8587 20.864 32.072L20.608 32.84C20.3947 33.0533 20.2667 33.2667 20.224 33.48C19.84 33.608 19.648 33.7787 19.648 33.992C19.648 34.2053 19.712 34.44 19.84 34.696C19.6693 35.4213 19.3067 36.2747 18.752 37.256C18.24 38.2373 17.8133 39.0907 17.472 39.816C17.3013 39.8587 17.1733 39.88 17.088 39.88C17.0027 39.88 16.8533 39.9227 16.64 40.008C16.768 40.136 16.896 40.2427 17.024 40.328C17.152 40.4133 17.1307 40.6053 16.96 40.904H16.832C16.5333 40.904 16.384 41.0107 16.384 41.224C16.4267 41.3947 16.448 41.5867 16.448 41.8C16.2773 42.2267 16.0213 42.8027 15.68 43.528C15.3387 44.2107 14.976 44.872 14.592 45.512C14.208 46.152 13.8667 46.6427 13.568 46.984C13.3973 47.1547 13.2907 47.3253 13.248 47.496C13.248 47.6667 13.2267 47.8587 13.184 48.072C13.184 48.1573 13.0347 48.456 12.736 48.968C12.48 49.48 12.2027 50.0133 11.904 50.568C11.6053 51.1227 11.392 51.4853 11.264 51.656C11.3067 51.8267 11.328 52.04 11.328 52.296C11.328 52.936 11.1147 53.4907 10.688 53.96C10.304 54.472 9.96267 54.9627 9.664 55.432C9.536 55.6027 9.36533 55.8373 9.152 56.136C8.98133 56.4347 8.78933 56.6907 8.576 56.904L8.064 57.16C8.02133 57.16 7.97867 57.1813 7.936 57.224C7.936 57.2667 7.89333 57.3093 7.808 57.352ZM4.736 23.368H5.568C5.73867 23.368 5.888 23.368 6.016 23.368C6.144 23.368 6.29333 23.3467 6.464 23.304C6.93333 23.2187 7.40267 23.1333 7.872 23.048C8.384 22.92 8.832 22.8347 9.216 22.792C9.344 22.7493 9.472 22.728 9.6 22.728C9.728 22.728 9.83467 22.728 9.92 22.728C10.0907 22.728 10.24 22.728 10.368 22.728C10.5387 22.728 10.7093 22.7493 10.88 22.792C10.9653 22.792 11.0933 22.7493 11.264 22.664C11.4773 22.536 11.6907 22.472 11.904 22.472C12.288 22.472 12.672 22.4507 13.056 22.408C13.44 22.3653 13.7173 22.344 13.888 22.344H16.192C16.6187 22.344 17.024 22.4293 17.408 22.6C17.792 22.728 18.1333 22.7707 18.432 22.728C18.5173 22.728 18.6027 22.7493 18.688 22.792C18.0907 22.408 17.344 22.088 16.448 21.832C15.3387 21.4907 14.1867 21.32 12.992 21.32C10.3467 21.32 7.59467 22.0027 4.736 23.368ZM31.04 53.448C30.6987 53.448 30.464 53.3627 30.336 53.192C30.2507 53.064 30.208 52.872 30.208 52.616C30.208 52.488 30.208 52.3387 30.208 52.168C30.2507 51.9547 30.272 51.7627 30.272 51.592C30.272 51.2933 30.2293 50.9733 30.144 50.632C30.0587 50.2907 29.8453 49.9707 29.504 49.672C29.3333 49.288 29.056 49.0747 28.672 49.032C28.5013 48.776 28.3307 48.648 28.16 48.648H28.096C28.0107 48.648 27.9253 48.5627 27.84 48.392C27.7547 48.1787 27.6267 48.072 27.456 48.072C27.3707 48.1573 27.3707 48.2427 27.456 48.328C27.3707 48.2853 27.2853 48.2427 27.2 48.2C27.1147 48.1573 27.008 48.1573 26.88 48.2C26.7093 48.1147 26.624 48.072 26.624 48.072H26.56C26.3893 47.8587 26.1547 47.7307 25.856 47.688C25.6 47.6027 25.3653 47.6027 25.152 47.688L24.384 47.496C24.0853 47.3253 23.808 47.2187 23.552 47.176C23.424 47.176 23.3387 47.24 23.296 47.368C23.2533 47.4533 23.1253 47.4533 22.912 47.368C22.6133 47.24 22.3573 47.2187 22.144 47.304C21.7173 47.304 21.2907 47.304 20.864 47.304C20.48 47.2613 20.0747 47.2613 19.648 47.304L19.072 47.368L18.56 47.432C18.3893 47.4747 18.2187 47.496 18.048 47.496C17.8773 47.496 17.7067 47.496 17.536 47.496C17.1093 47.496 16.8533 47.4747 16.768 47.432C16.4693 47.304 16.1493 47.0693 15.808 46.728C15.4667 46.344 15.296 46.0027 15.296 45.704C15.296 45.4907 15.3173 45.2347 15.36 44.936C15.4027 44.6373 15.552 44.4027 15.808 44.232C16.704 43.5067 17.6853 43.144 18.752 43.144C19.7333 43.144 20.4587 43.208 20.928 43.336C21.3973 43.464 21.824 43.656 22.208 43.912C22.6347 44.1253 23.2107 44.36 23.936 44.616C24.6613 44.8293 25.3867 44.936 26.112 44.936C26.624 44.936 27.136 44.9147 27.648 44.872C28.2027 44.7867 28.7147 44.7227 29.184 44.68C29.44 44.6373 29.7173 44.616 30.016 44.616C30.3147 44.5733 30.592 44.5307 30.848 44.488H31.04C31.168 44.488 31.2747 44.5093 31.36 44.552C31.488 44.5947 31.6373 44.5947 31.808 44.552C31.8933 44.552 32.0427 44.5093 32.256 44.424C32.4693 44.296 32.6187 44.232 32.704 44.232C32.7893 44.232 32.8533 44.232 32.896 44.232C32.9813 44.1893 33.0667 44.168 33.152 44.168L33.408 43.464C33.4933 43.208 33.5787 42.952 33.664 42.696C33.7493 42.3973 33.792 42.0987 33.792 41.8V41.736C33.8347 41.6933 33.8773 41.5227 33.92 41.224C34.0053 40.8827 34.048 40.712 34.048 40.712L34.688 38.984L34.88 38.536L34.944 38.024C35.0293 37.8533 35.072 37.7253 35.072 37.64C35.2853 36.9147 35.5627 36.2107 35.904 35.528C36.288 34.8453 36.5653 34.1413 36.736 33.416L36.864 32.904L37.056 32.52V32.456C37.1413 32.3707 37.1627 32.3067 37.12 32.264C37.12 32.1787 37.12 32.1147 37.12 32.072C37.0773 32.072 37.0347 32.0507 36.992 32.008C36.992 31.9653 36.992 31.944 36.992 31.944C37.3333 31.688 37.6107 31.4107 37.824 31.112C38.0373 30.7707 38.08 30.3867 37.952 29.96V29.896L38.272 28.936L38.4 28.424C38.4853 28.296 38.6133 28.2107 38.784 28.168C38.9973 28.0827 39.0613 27.9547 38.976 27.784C38.6347 27.656 38.5707 27.4213 38.784 27.08C38.8267 27.0373 38.8907 27.016 38.976 27.016C39.1467 27.016 39.36 26.9947 39.616 26.952C39.872 26.9093 40.0853 26.8027 40.256 26.632V26.44C40.128 26.2267 39.9147 26.12 39.616 26.12C39.36 26.0773 39.232 25.928 39.232 25.672L39.36 25.48L39.488 24.904C39.616 24.264 40.064 23.7733 40.832 23.432C41.6 23.048 42.304 22.856 42.944 22.856C43.2853 22.856 43.5627 22.92 43.776 23.048C43.9893 23.176 44.032 23.3893 43.904 23.688L42.816 26.248C42.688 26.376 42.5813 26.5467 42.496 26.76C42.4107 26.9307 42.304 27.1013 42.176 27.272C42.1333 27.3573 42.048 27.4213 41.92 27.464C41.8347 27.464 41.7707 27.5067 41.728 27.592C41.6853 27.72 41.7067 27.784 41.792 27.784C41.8773 27.7413 41.8987 27.784 41.856 27.912C41.7707 28.2107 41.6 28.5733 41.344 29C41.1307 29.384 40.9387 29.704 40.768 29.96C40.7253 29.96 40.6827 29.9813 40.64 30.024C40.4693 30.024 40.384 29.9173 40.384 29.704C40.384 29.4907 40.32 29.3627 40.192 29.32C40.192 29.3627 40.1707 29.4053 40.128 29.448C40.128 29.4907 40.128 29.5547 40.128 29.64C40.128 29.8107 40.1493 29.9813 40.192 30.152C40.2773 30.3227 40.2987 30.5147 40.256 30.728C40.1707 30.7707 40.128 30.8987 40.128 31.112C40.128 31.24 40.064 31.3253 39.936 31.368C39.808 31.368 39.7227 31.4533 39.68 31.624L38.464 33.608L38.208 34.12C38.1227 34.2907 38.016 34.4613 37.888 34.632C37.76 34.8027 37.632 34.9947 37.504 35.208C37.376 35.4213 37.312 35.5493 37.312 35.592C37.312 35.592 37.248 35.6987 37.12 35.912C37.0773 35.9973 37.0347 36.1253 36.992 36.296C36.9493 36.4667 36.8853 36.616 36.8 36.744C36.8 36.744 36.7147 36.7227 36.544 36.68C36.3733 36.6373 36.288 36.6373 36.288 36.68C36.2027 36.808 36.16 36.9573 36.16 37.128C36.16 37.2133 36.16 37.32 36.16 37.448C36.2027 37.5333 36.2453 37.6827 36.288 37.896C36.288 38.0667 36.2667 38.1733 36.224 38.216C36.1387 38.3867 36.096 38.5147 36.096 38.6C36.096 38.6853 35.9893 38.856 35.776 39.112C35.5627 39.3253 35.456 39.4747 35.456 39.56C35.328 39.9867 35.264 40.2853 35.264 40.456C35.264 40.584 35.1787 40.8613 35.008 41.288L34.688 42.12C34.688 42.12 34.688 42.2053 34.688 42.376C34.688 42.5467 34.6667 42.632 34.624 42.632C34.5387 42.76 34.432 42.952 34.304 43.208C34.2187 43.4213 34.1333 43.656 34.048 43.912C34.304 43.8267 34.5387 43.7627 34.752 43.72C34.9653 43.6347 35.1147 43.592 35.2 43.592C35.456 43.5493 35.6693 43.5493 35.84 43.592C36.0533 43.592 36.2453 43.592 36.416 43.592C36.544 43.592 36.6507 43.5493 36.736 43.464C36.864 43.3787 36.9493 43.336 36.992 43.336C37.12 43.2933 37.2267 43.3147 37.312 43.4C37.3973 43.4427 37.44 43.464 37.44 43.464C37.44 43.464 37.44 43.528 37.44 43.656C37.44 43.7413 37.3973 43.8267 37.312 43.912C37.2693 43.9547 37.184 43.9547 37.056 43.912C36.928 43.8693 36.8213 43.8693 36.736 43.912C36.4373 43.9547 36.0533 44.0187 35.584 44.104C35.1147 44.1893 34.6453 44.2747 34.176 44.36C34.048 44.36 33.9413 44.3813 33.856 44.424C33.728 44.808 33.664 45.1493 33.664 45.448L33.472 46.024C33.4293 46.152 33.3867 46.3013 33.344 46.472C33.3013 46.6 33.2587 46.7067 33.216 46.792L33.152 47.112L33.088 47.176C33.0453 47.3467 33.0453 47.4747 33.088 47.56C33.1307 47.6453 33.1307 47.7947 33.088 48.008V48.776C33.4293 49.288 33.6 49.7147 33.6 50.056C33.6 50.3973 33.5147 50.696 33.344 50.952C33.1733 51.208 33.0667 51.5493 33.024 51.976C32.9813 52.2747 32.7893 52.5947 32.448 52.936C32.1493 53.2773 31.68 53.448 31.04 53.448ZM31.36 49.736C31.4453 49.736 31.5307 49.6293 31.616 49.416C31.744 49.2027 31.8933 48.8187 32.064 48.264L32.128 47.752C32.1707 47.6667 32.2133 47.5173 32.256 47.304C32.3413 47.048 32.4053 46.8987 32.448 46.856V46.792C32.6613 46.536 32.7893 46.3013 32.832 46.088C32.8747 45.832 32.896 45.5547 32.896 45.256V45L33.024 44.552C32.8107 44.5947 32.512 44.68 32.128 44.808C31.744 44.936 31.3173 45.0213 30.848 45.064C30.08 45.1493 29.248 45.2773 28.352 45.448C27.4987 45.6187 26.7307 45.7253 26.048 45.768C25.92 45.768 25.7707 45.7893 25.6 45.832C25.4293 45.832 25.3013 45.8107 25.216 45.768C25.088 45.6827 25.024 45.5973 25.024 45.512C24.9813 45.3413 24.8747 45.2773 24.704 45.32C24.576 45.3627 24.512 45.384 24.512 45.384C24.4693 45.384 24.4053 45.4267 24.32 45.512C24.2773 45.5547 24.2133 45.576 24.128 45.576C23.9573 45.576 23.808 45.5973 23.68 45.64C23.5947 45.6827 23.4667 45.704 23.296 45.704C23.1253 45.6613 22.9547 45.6187 22.784 45.576C22.6133 45.5333 22.464 45.512 22.336 45.512C22.1653 45.5547 21.9733 45.5973 21.76 45.64C21.5893 45.64 21.3973 45.6613 21.184 45.704C21.1413 45.704 21.0987 45.704 21.056 45.704C21.056 45.6613 21.0347 45.64 20.992 45.64C20.7787 45.64 20.672 45.7467 20.672 45.96C20.672 46.2587 20.864 46.344 21.248 46.216L22.784 46.408H23.232L23.296 46.472C23.3813 46.5147 23.4667 46.5573 23.552 46.6C23.68 46.6427 23.808 46.6853 23.936 46.728C24.2773 46.856 24.7253 46.9413 25.28 46.984C25.8773 47.0267 26.3253 47.112 26.624 47.24L27.328 47.56C27.4987 47.6027 27.6267 47.624 27.712 47.624C27.7973 47.624 27.9253 47.6453 28.096 47.688L28.416 48.072C28.5867 48.1147 28.6933 48.1147 28.736 48.072C28.7787 48.0293 28.864 48.0507 28.992 48.136L29.632 48.52C29.76 48.7333 29.9307 48.8827 30.144 48.968C30.3573 49.0533 30.4853 49.096 30.528 49.096C30.7413 49.1813 30.8907 49.3093 30.976 49.48C31.104 49.6507 31.232 49.736 31.36 49.736ZM52.2615 57.672C50.3842 57.672 48.5708 56.8613 46.8215 55.24C46.5655 55.1547 46.3522 54.9627 46.1815 54.664C46.0108 54.408 45.8402 54.1947 45.6695 54.024C45.3708 53.9387 45.1788 53.8107 45.0935 53.64C45.0082 53.4693 44.9228 53.256 44.8375 53C44.8375 52.9573 44.7948 52.8933 44.7095 52.808C44.6668 52.7653 44.6242 52.7227 44.5815 52.68C44.5388 52.6373 44.4962 52.5947 44.4535 52.552C44.4108 52.552 44.3895 52.552 44.3895 52.552C44.4322 52.5093 44.4535 52.488 44.4535 52.488C44.2828 52.1467 44.1762 51.912 44.1335 51.784C44.0908 51.6133 43.9202 51.4 43.6215 51.144C43.5362 51.0587 43.4508 50.9307 43.3655 50.76C43.3228 50.5467 43.2802 50.376 43.2375 50.248C42.7682 49.1387 42.3415 48.008 41.9575 46.856C41.6162 45.6613 41.4455 44.4453 41.4455 43.208C41.4455 42.7813 41.5735 42.4613 41.8295 42.248C42.0855 42.0347 42.3628 41.928 42.6615 41.928C43.2162 41.928 43.5788 42.2053 43.7495 42.76C43.8348 42.9307 43.9202 43.1227 44.0055 43.336C44.1335 43.5067 44.1975 43.6773 44.1975 43.848V44.488C44.1975 44.744 44.2615 44.808 44.3895 44.68C44.5602 44.5093 44.6668 44.5307 44.7095 44.744C44.7948 45.0427 44.8588 45.2347 44.9015 45.32C44.9442 45.3627 45.1148 45.4693 45.4135 45.64C45.4988 45.8107 45.6055 45.9813 45.7335 46.152C45.8615 46.3227 45.9895 46.4933 46.1175 46.664V46.792C46.1175 47.048 46.2028 47.24 46.3735 47.368C46.5442 47.4533 46.7362 47.56 46.9495 47.688L47.7815 48.584C47.7388 48.6693 47.7175 48.7547 47.7175 48.84C47.7175 49.096 47.8455 49.2667 48.1015 49.352C48.4002 49.4373 48.6562 49.5227 48.8695 49.608C48.9122 49.6507 49.1468 49.864 49.5735 50.248C50.0428 50.5893 50.3628 50.8027 50.5335 50.888C50.7468 51.016 50.9815 51.1653 51.2375 51.336C51.4935 51.464 51.7495 51.5707 52.0055 51.656C52.0908 51.656 52.1762 51.6987 52.2615 51.784C53.0295 52.0827 53.7335 52.232 54.3735 52.232C54.9708 52.232 55.6535 52.104 56.4215 51.848C56.5495 51.8053 56.6562 51.784 56.7415 51.784C56.8695 51.7413 56.9548 51.72 56.9975 51.72C57.1255 51.72 57.1895 51.7627 57.1895 51.848C57.1895 52.0613 56.9975 52.2747 56.6135 52.488C56.6135 52.5733 56.5495 52.616 56.4215 52.616C56.2508 52.6587 56.0802 52.7227 55.9095 52.808C55.7388 52.8933 55.5682 52.9147 55.3975 52.872C55.1842 52.872 55.0135 52.8507 54.8855 52.808C54.7575 52.7653 54.5868 52.8293 54.3735 53C53.8188 52.9573 53.2002 52.8293 52.5175 52.616C51.8348 52.4027 51.2588 52.168 50.7895 51.912C50.7468 51.6133 50.5548 51.464 50.2135 51.464C49.8722 51.4213 49.5948 51.3147 49.3815 51.144C49.2108 50.9307 49.0615 50.696 48.9335 50.44C48.8482 50.184 48.6348 50.1627 48.2935 50.376C48.1228 50.2053 47.9735 50.0773 47.8455 49.992C47.7175 49.864 47.5255 49.8 47.2695 49.8C47.1842 49.7147 47.0562 49.6293 46.8855 49.544C46.7575 49.4587 46.7148 49.3307 46.7575 49.16C46.5868 49.032 46.2455 48.8187 45.7335 48.52C45.2642 48.1787 44.9868 47.9653 44.9015 47.88C44.5175 47.4533 44.0908 47.0907 43.6215 46.792L43.4295 46.664C43.9842 48.328 44.6455 49.9493 45.4135 51.528C46.2242 53.1067 47.3975 54.3867 48.9335 55.368C49.6588 55.7947 50.3202 56.136 50.9175 56.392C51.5575 56.6907 52.1762 56.84 52.7735 56.84C53.8828 56.84 55.0562 56.2853 56.2935 55.176C57.3602 54.1947 58.3202 53.0213 59.1735 51.656C60.0268 50.248 60.7948 48.776 61.4775 47.24C62.1602 45.704 62.7575 44.2747 63.2695 42.952C63.3548 42.8667 63.4188 42.8027 63.4615 42.76C63.5042 42.7173 63.5468 42.6747 63.5895 42.632C63.7175 42.3333 63.8028 41.992 63.8455 41.608C63.9308 41.1813 64.0162 40.8187 64.1015 40.52C64.3148 40.264 64.5068 39.9653 64.6775 39.624C64.8908 39.24 64.9975 38.8773 64.9975 38.536L65.1255 38.216C65.2108 38.1733 65.1895 38.1093 65.0615 38.024C64.9335 37.9387 65.0188 37.8747 65.3175 37.832C65.6162 37.3627 65.7868 36.8933 65.8295 36.424C65.9148 35.912 66.0428 35.5493 66.2135 35.336C66.3415 35.1227 66.4695 34.9307 66.5975 34.76C66.7255 34.5893 66.7468 34.376 66.6615 34.12C66.7042 33.9493 66.8322 33.544 67.0455 32.904C67.3015 32.2213 67.5788 31.4747 67.8775 30.664C68.1762 29.8533 68.4322 29.1493 68.6455 28.552C68.8588 27.912 68.9655 27.5493 68.9655 27.464L69.6695 25.608C68.4748 25.6507 67.2375 25.7147 65.9575 25.8C64.7202 25.8853 63.5042 26.0773 62.3095 26.376C62.3522 26.3333 62.3308 26.2907 62.2455 26.248C62.1602 26.1627 62.0962 26.12 62.0535 26.12L61.9895 26.056C61.8188 26.0133 61.7762 26.056 61.8615 26.184C61.9895 26.2693 61.9682 26.3547 61.7975 26.44C61.4135 26.4827 60.9655 26.5893 60.4535 26.76C59.9842 26.888 59.5575 26.952 59.1735 26.952C59.0028 26.9947 58.8108 27.016 58.5975 27.016C58.3842 26.9733 58.1708 26.952 57.9575 26.952C57.3175 26.9947 56.6775 27.1653 56.0375 27.464C55.4402 27.7627 54.8215 28.0187 54.1815 28.232L53.0295 28.552C52.5602 28.7653 52.0482 28.9147 51.4935 29C50.9388 29.0853 50.4268 29.2347 49.9575 29.448L50.0215 29.512C49.8508 29.64 49.6375 29.7253 49.3815 29.768C49.1255 29.8107 48.8908 29.8747 48.6775 29.96C48.1655 30.1307 47.6322 30.344 47.0775 30.6C46.5655 30.8133 46.0322 31.0053 45.4775 31.176C45.1788 31.2613 44.8802 31.3467 44.5815 31.432C44.3255 31.4747 44.0268 31.56 43.6855 31.688C43.5148 31.7307 43.3655 31.7733 43.2375 31.816C43.1095 31.816 42.9602 31.816 42.7895 31.816C42.4055 31.816 42.0642 31.7307 41.7655 31.56C41.5948 31.4747 41.3388 31.24 40.9975 30.856C40.6988 30.4293 40.4428 30.0027 40.2295 29.576C40.0162 29.1067 39.9308 28.7653 39.9735 28.552C40.0162 28.424 40.2935 28.2747 40.8055 28.104C41.3175 27.8907 41.9148 27.6987 42.5975 27.528C43.2802 27.3147 43.8988 27.144 44.4535 27.016C45.0508 26.8453 45.4348 26.7387 45.6055 26.696C45.6908 26.6533 45.9255 26.6107 46.3095 26.568C46.6935 26.4827 46.9068 26.5253 46.9495 26.696C46.9922 26.7813 46.9495 26.9093 46.8215 27.08C46.6935 27.208 46.5868 27.3147 46.5015 27.4C46.5015 27.4427 46.4375 27.528 46.3095 27.656C46.2242 27.784 46.2242 27.8267 46.3095 27.784L48.5495 27.208C48.8908 27.1227 49.2962 27.1013 49.7655 27.144C50.2775 27.144 50.6615 27.0587 50.9175 26.888C51.0028 26.8027 51.0455 26.7173 51.0455 26.632C51.0882 26.5467 51.1735 26.504 51.3015 26.504C51.6002 26.4187 52.0908 26.3333 52.7735 26.248C53.4988 26.1627 53.9468 26.0347 54.1175 25.864C54.4588 25.7787 54.8215 25.736 55.2055 25.736C55.5895 25.6933 55.9308 25.5867 56.2295 25.416C56.3575 25.3733 56.7628 25.288 57.4455 25.16C58.1708 25.032 58.9815 24.904 59.8775 24.776C60.8162 24.6053 61.6482 24.4773 62.3735 24.392C63.0988 24.264 63.5255 24.2 63.6535 24.2H63.7175C63.8882 24.2 64.0588 24.1787 64.2295 24.136C64.4002 24.0933 64.5708 24.072 64.7415 24.072C65.0828 24.072 65.2535 24.2213 65.2535 24.52C65.2962 24.5627 65.4028 24.584 65.5735 24.584C65.9575 24.584 66.2562 24.4773 66.4695 24.264C66.6402 24.2213 66.7682 24.1573 66.8535 24.072C66.9815 23.9867 67.1308 23.9227 67.3015 23.88C67.7708 23.7947 68.2615 23.7733 68.7735 23.816C69.3282 23.816 69.8188 23.816 70.2455 23.816C70.5442 23.176 70.8642 22.7493 71.2055 22.536C71.5468 22.28 72.0588 22.152 72.7415 22.152C73.2108 22.152 73.5095 22.3867 73.6375 22.856C73.7655 23.2827 73.8295 23.6667 73.8295 24.008C74.0428 24.008 74.3202 24.008 74.6615 24.008C75.0028 23.9653 75.3655 23.944 75.7495 23.944C76.1335 23.944 76.4962 23.9653 76.8375 24.008C77.2215 24.0507 77.5202 24.1147 77.7335 24.2C77.7762 24.072 77.8828 24.0293 78.0535 24.072C78.2668 24.072 78.4162 24.0933 78.5015 24.136C78.8428 24.3067 79.2055 24.392 79.5895 24.392C80.0162 24.3493 80.4215 24.4133 80.8055 24.584C81.1895 24.712 81.5522 24.8613 81.8935 25.032C82.2348 25.2027 82.5975 25.352 82.9815 25.48C83.3228 25.5653 83.5788 25.6933 83.7495 25.864C83.9628 26.0347 84.2188 26.2267 84.5175 26.44C84.8588 26.696 85.0722 26.9307 85.1575 27.144C85.1575 27.144 85.1788 27.2293 85.2215 27.4C85.2642 27.528 85.2215 27.5707 85.0935 27.528C85.0508 27.528 84.9868 27.528 84.9015 27.528C84.8588 27.4853 84.8162 27.4853 84.7735 27.528C84.7735 27.6987 84.8375 27.848 84.9655 27.976C85.0508 28.0187 85.1362 28.0187 85.2215 27.976C85.3495 27.9333 85.4348 27.8907 85.4775 27.848C85.6482 27.848 85.7335 27.9333 85.7335 28.104C85.7762 28.2747 85.8188 28.4453 85.8615 28.616C85.9895 29.128 86.0535 29.64 86.0535 30.152C86.0535 30.7067 85.9042 31.3253 85.6055 32.008C85.3495 32.6907 84.9868 33.288 84.5175 33.8C84.0482 34.2693 83.4935 34.504 82.8535 34.504C82.6402 34.504 82.4695 34.4827 82.3415 34.44C81.8722 34.312 81.6375 34.184 81.6375 34.056C81.6375 33.928 81.8508 33.7147 82.2775 33.416C82.5762 33.2027 82.8322 32.968 83.0455 32.712C83.2588 32.4133 83.4508 32.1147 83.6215 31.816C83.9202 31.6027 84.1548 31.176 84.3255 30.536C84.4962 29.896 84.5815 29.2987 84.5815 28.744C84.5815 28.3173 84.5175 27.976 84.3895 27.72C84.3468 27.72 84.1548 27.4853 83.8135 27.016C83.5148 26.5467 83.1522 26.2907 82.7255 26.248C82.5122 26.1627 82.2775 26.0773 82.0215 25.992C81.8082 25.9067 81.5948 25.8427 81.3815 25.8C81.2108 25.6293 80.8695 25.5013 80.3575 25.416C79.8882 25.3307 79.3975 25.2667 78.8855 25.224C78.3735 25.1813 77.9895 25.16 77.7335 25.16C77.5202 25.16 77.1362 25.1813 76.5815 25.224C76.0268 25.224 75.4722 25.2453 74.9175 25.288C74.3628 25.288 73.9788 25.288 73.7655 25.288C73.3815 26.3973 72.7202 27.0587 71.7815 27.272C71.7388 27.4 71.5682 27.848 71.2695 28.616C70.9708 29.384 70.6508 30.2373 70.3095 31.176C69.9682 32.072 69.6482 32.8827 69.3495 33.608C69.0935 34.2907 68.9442 34.6747 68.9015 34.76C68.7735 34.9307 68.6455 35.1013 68.5175 35.272C68.3895 35.4427 68.3042 35.6347 68.2615 35.848C68.2188 36.2747 68.0268 36.872 67.6855 37.64C67.3868 38.408 67.0455 39.176 66.6615 39.944C66.3202 40.6693 66.0428 41.2667 65.8295 41.736C65.5735 41.9067 65.3602 42.056 65.1895 42.184C65.0188 42.2693 65.0615 42.4613 65.3175 42.76C65.1895 43.0587 65.0615 43.208 64.9335 43.208C64.8055 43.1653 64.6348 43.1227 64.4215 43.08C64.4642 43.2933 64.5282 43.4427 64.6135 43.528C64.6988 43.5707 64.7628 43.6987 64.8055 43.912C64.4642 44.68 64.0375 45.6187 63.5255 46.728C63.0135 47.7947 62.5015 48.648 61.9895 49.288C61.6908 49.416 61.4562 49.544 61.2855 49.672C61.1148 49.8 61.1148 50.056 61.2855 50.44C61.2002 50.5253 61.1362 50.632 61.0935 50.76C61.0508 50.888 61.0082 51.016 60.9655 51.144L60.4535 51.912C60.2828 52.04 60.1122 52.1893 59.9415 52.36C59.7708 52.488 59.6855 52.7013 59.6855 53C59.5148 53.256 59.3655 53.448 59.2375 53.576C58.9815 53.6613 58.7682 53.768 58.5975 53.896C58.4268 54.024 58.3415 54.2587 58.3415 54.6C57.4882 55.5387 56.5282 56.2853 55.4615 56.84C54.4375 57.3947 53.3708 57.672 52.2615 57.672Z" fill="black"/>
</svg>
