<svg width="236" height="41" viewBox="0 0 236 41" fill="none" xmlns="http://www.w3.org/2000/svg">
<path d="M6.183 40.352C5.71367 40.352 5.351 40.224 5.095 39.968C4.66833 39.4987 4.455 39.0507 4.455 38.624C4.455 38.4107 4.519 38.176 4.647 37.92C4.73233 37.7067 4.88167 37.408 5.095 37.024C5.351 36.64 5.56433 36.2987 5.735 36C5.863 35.7867 6.01233 35.6373 6.183 35.552C6.35367 35.4667 6.48167 35.36 6.567 35.232C6.60967 35.1893 6.78033 34.9333 7.079 34.464C7.37767 33.952 7.69767 33.376 8.039 32.736C8.423 32.0533 8.76433 31.4347 9.063 30.88C9.36167 30.3253 9.55367 29.984 9.639 29.856C9.895 29.7707 10.0443 29.6213 10.087 29.408C10.1723 29.1947 10.2363 29.0027 10.279 28.832C10.3643 28.576 10.5777 28.2773 10.919 27.936C11.2603 27.5947 11.495 27.1893 11.623 26.72C11.495 26.5067 11.495 26.4213 11.623 26.464C11.7937 26.5067 11.8577 26.464 11.815 26.336L11.943 26.08C12.2417 25.8667 12.455 25.5893 12.583 25.248C12.7537 24.9067 12.8603 24.5867 12.903 24.288C13.1163 24.032 13.351 23.776 13.607 23.52C13.863 23.264 14.055 22.9867 14.183 22.688C14.2257 22.6027 14.2257 22.5387 14.183 22.496C14.183 22.4107 14.2043 22.3467 14.247 22.304V22.24C14.9723 21.0027 15.6977 19.68 16.423 18.272C17.191 16.864 17.831 15.4347 18.343 13.984C18.855 12.4907 19.111 11.0827 19.111 9.76C19.111 8.56533 18.8123 7.56267 18.215 6.752C18.087 6.752 17.959 6.752 17.831 6.752C17.703 6.70933 17.5963 6.688 17.511 6.688C17.3403 6.64533 17.0203 6.60267 16.551 6.56C16.1243 6.51733 15.6977 6.45333 15.271 6.368C14.887 6.28266 14.6737 6.24 14.631 6.24C14.4603 6.19733 14.2683 6.176 14.055 6.176C13.8417 6.13333 13.607 6.112 13.351 6.112C13.0523 6.112 12.7323 6.13333 12.391 6.176C12.0923 6.21866 11.815 6.28266 11.559 6.368L9.831 6.56C9.703 6.51733 9.46833 6.496 9.127 6.496C8.231 6.496 7.207 6.64533 6.055 6.944C4.903 7.2 4.135 7.47733 3.751 7.776L3.303 8.096C3.175 8.18133 3.00433 8.24533 2.791 8.288C2.57767 8.33067 2.38567 8.39467 2.215 8.48C1.78833 8.65067 1.40433 8.608 1.063 8.352C0.764333 8.096 0.615 7.79733 0.615 7.456C0.615 7.11467 0.785667 6.816 1.127 6.56C2.06567 5.83467 3.06833 5.25867 4.135 4.832C5.20167 4.36267 6.311 3.97867 7.463 3.68C7.54833 3.63733 7.655 3.59466 7.783 3.552C7.95367 3.50933 8.103 3.488 8.231 3.488C8.70033 3.488 8.999 3.488 9.127 3.488C9.255 3.44533 9.511 3.38133 9.895 3.296L9.959 3.232C10.1297 3.232 10.2577 3.25333 10.343 3.296H10.535C10.7483 3.21067 10.9403 3.12533 11.111 3.04C11.3243 2.95466 11.5377 3.01867 11.751 3.232L12.647 3.168C12.9457 3.168 13.1803 3.232 13.351 3.36C15.8257 3.744 17.639 4.704 18.791 6.24C18.9617 6.24 19.0897 6.21866 19.175 6.176C19.4737 6.21866 19.7937 6.304 20.135 6.432C20.4763 6.56 20.7963 6.688 21.095 6.816C21.3937 6.85867 21.6497 6.90133 21.863 6.944C22.0763 6.98667 22.2897 7.05067 22.503 7.136L23.399 7.584C23.4843 7.84 23.591 7.98933 23.719 8.032C23.847 8.07467 24.0177 8.18133 24.231 8.352C24.4017 8.43733 24.5083 8.56533 24.551 8.736C24.6363 8.864 24.7217 9.01333 24.807 9.184C24.8497 9.22667 24.871 9.33333 24.871 9.504C24.871 9.632 24.871 9.71733 24.871 9.76C24.7857 10.1013 24.679 10.272 24.551 10.272C24.3377 10.272 24.1457 10.1013 23.975 9.76C23.5483 9.07733 23.207 8.58666 22.951 8.288C22.695 7.98933 22.055 7.712 21.031 7.456C20.9883 7.456 20.7963 7.41333 20.455 7.328C20.1137 7.24267 19.9217 7.17867 19.879 7.136C19.751 7.136 19.559 7.09333 19.303 7.008C19.815 8.07467 20.071 9.248 20.071 10.528C20.071 10.7413 20.0497 10.976 20.007 11.232C20.007 11.488 19.9857 11.744 19.943 12C19.687 12.1707 19.559 12.3627 19.559 12.576C19.559 12.6613 19.559 12.768 19.559 12.896C19.6017 12.9813 19.6443 13.088 19.687 13.216C19.687 13.344 19.6657 13.472 19.623 13.6C19.623 13.6853 19.6017 13.792 19.559 13.92C19.3883 14.048 19.2817 14.2187 19.239 14.432C19.1963 14.6453 19.1963 14.8587 19.239 15.072L18.983 15.84C18.7697 16.0533 18.6417 16.2667 18.599 16.48C18.215 16.608 18.023 16.7787 18.023 16.992C18.023 17.2053 18.087 17.44 18.215 17.696C18.0443 18.4213 17.6817 19.2747 17.127 20.256C16.615 21.2373 16.1883 22.0907 15.847 22.816C15.6763 22.8587 15.5483 22.88 15.463 22.88C15.3777 22.88 15.2283 22.9227 15.015 23.008C15.143 23.136 15.271 23.2427 15.399 23.328C15.527 23.4133 15.5057 23.6053 15.335 23.904H15.207C14.9083 23.904 14.759 24.0107 14.759 24.224C14.8017 24.3947 14.823 24.5867 14.823 24.8C14.6523 25.2267 14.3963 25.8027 14.055 26.528C13.7137 27.2107 13.351 27.872 12.967 28.512C12.583 29.152 12.2417 29.6427 11.943 29.984C11.7723 30.1547 11.6657 30.3253 11.623 30.496C11.623 30.6667 11.6017 30.8587 11.559 31.072C11.559 31.1573 11.4097 31.456 11.111 31.968C10.855 32.48 10.5777 33.0133 10.279 33.568C9.98033 34.1227 9.767 34.4853 9.639 34.656C9.68167 34.8267 9.703 35.04 9.703 35.296C9.703 35.936 9.48967 36.4907 9.063 36.96C8.679 37.472 8.33767 37.9627 8.039 38.432C7.911 38.6027 7.74033 38.8373 7.527 39.136C7.35633 39.4347 7.16433 39.6907 6.951 39.904L6.439 40.16C6.39633 40.16 6.35367 40.1813 6.311 40.224C6.311 40.2667 6.26833 40.3093 6.183 40.352ZM3.111 6.368H3.943C4.11367 6.368 4.263 6.368 4.391 6.368C4.519 6.368 4.66833 6.34667 4.839 6.304C5.30833 6.21867 5.77767 6.13333 6.247 6.048C6.759 5.92 7.207 5.83467 7.591 5.792C7.719 5.74933 7.847 5.728 7.975 5.728C8.103 5.728 8.20967 5.728 8.295 5.728C8.46567 5.728 8.615 5.728 8.743 5.728C8.91367 5.728 9.08433 5.74933 9.255 5.792C9.34033 5.792 9.46833 5.74933 9.639 5.664C9.85233 5.536 10.0657 5.472 10.279 5.472C10.663 5.472 11.047 5.45067 11.431 5.408C11.815 5.36533 12.0923 5.344 12.263 5.344H14.567C14.9937 5.344 15.399 5.42933 15.783 5.6C16.167 5.728 16.5083 5.77066 16.807 5.728C16.8923 5.728 16.9777 5.74933 17.063 5.792C16.4657 5.408 15.719 5.088 14.823 4.832C13.7137 4.49066 12.5617 4.32 11.367 4.32C8.72167 4.32 5.96967 5.00266 3.111 6.368ZM29.415 36.448C29.0737 36.448 28.839 36.3627 28.711 36.192C28.6257 36.064 28.583 35.872 28.583 35.616C28.583 35.488 28.583 35.3387 28.583 35.168C28.6257 34.9547 28.647 34.7627 28.647 34.592C28.647 34.2933 28.6043 33.9733 28.519 33.632C28.4337 33.2907 28.2203 32.9707 27.879 32.672C27.7083 32.288 27.431 32.0747 27.047 32.032C26.8763 31.776 26.7057 31.648 26.535 31.648H26.471C26.3857 31.648 26.3003 31.5627 26.215 31.392C26.1297 31.1787 26.0017 31.072 25.831 31.072C25.7457 31.1573 25.7457 31.2427 25.831 31.328C25.7457 31.2853 25.6603 31.2427 25.575 31.2C25.4897 31.1573 25.383 31.1573 25.255 31.2C25.0843 31.1147 24.999 31.072 24.999 31.072H24.935C24.7643 30.8587 24.5297 30.7307 24.231 30.688C23.975 30.6027 23.7403 30.6027 23.527 30.688L22.759 30.496C22.4603 30.3253 22.183 30.2187 21.927 30.176C21.799 30.176 21.7137 30.24 21.671 30.368C21.6283 30.4533 21.5003 30.4533 21.287 30.368C20.9883 30.24 20.7323 30.2187 20.519 30.304C20.0923 30.304 19.6657 30.304 19.239 30.304C18.855 30.2613 18.4497 30.2613 18.023 30.304L17.447 30.368L16.935 30.432C16.7643 30.4747 16.5937 30.496 16.423 30.496C16.2523 30.496 16.0817 30.496 15.911 30.496C15.4843 30.496 15.2283 30.4747 15.143 30.432C14.8443 30.304 14.5243 30.0693 14.183 29.728C13.8417 29.344 13.671 29.0027 13.671 28.704C13.671 28.4907 13.6923 28.2347 13.735 27.936C13.7777 27.6373 13.927 27.4027 14.183 27.232C15.079 26.5067 16.0603 26.144 17.127 26.144C18.1083 26.144 18.8337 26.208 19.303 26.336C19.7723 26.464 20.199 26.656 20.583 26.912C21.0097 27.1253 21.5857 27.36 22.311 27.616C23.0363 27.8293 23.7617 27.936 24.487 27.936C24.999 27.936 25.511 27.9147 26.023 27.872C26.5777 27.7867 27.0897 27.7227 27.559 27.68C27.815 27.6373 28.0923 27.616 28.391 27.616C28.6897 27.5733 28.967 27.5307 29.223 27.488H29.415C29.543 27.488 29.6497 27.5093 29.735 27.552C29.863 27.5947 30.0123 27.5947 30.183 27.552C30.2683 27.552 30.4177 27.5093 30.631 27.424C30.8443 27.296 30.9937 27.232 31.079 27.232C31.1643 27.232 31.2283 27.232 31.271 27.232C31.3563 27.1893 31.4417 27.168 31.527 27.168L31.783 26.464C31.8683 26.208 31.9537 25.952 32.039 25.696C32.1243 25.3973 32.167 25.0987 32.167 24.8V24.736C32.2097 24.6933 32.2523 24.5227 32.295 24.224C32.3803 23.8827 32.423 23.712 32.423 23.712L33.063 21.984L33.255 21.536L33.319 21.024C33.4043 20.8533 33.447 20.7253 33.447 20.64C33.6603 19.9147 33.9377 19.2107 34.279 18.528C34.663 17.8453 34.9403 17.1413 35.111 16.416L35.239 15.904L35.431 15.52V15.456C35.5163 15.3707 35.5377 15.3067 35.495 15.264C35.495 15.1787 35.495 15.1147 35.495 15.072C35.4523 15.072 35.4097 15.0507 35.367 15.008C35.367 14.9653 35.367 14.944 35.367 14.944C35.7083 14.688 35.9857 14.4107 36.199 14.112C36.4123 13.7707 36.455 13.3867 36.327 12.96V12.896L36.647 11.936L36.775 11.424C36.8603 11.296 36.9883 11.2107 37.159 11.168C37.3723 11.0827 37.4363 10.9547 37.351 10.784C37.0097 10.656 36.9457 10.4213 37.159 10.08C37.2017 10.0373 37.2657 10.016 37.351 10.016C37.5217 10.016 37.735 9.99467 37.991 9.952C38.247 9.90933 38.4603 9.80267 38.631 9.632V9.44C38.503 9.22667 38.2897 9.12 37.991 9.12C37.735 9.07733 37.607 8.928 37.607 8.672L37.735 8.48L37.863 7.904C37.991 7.264 38.439 6.77333 39.207 6.432C39.975 6.048 40.679 5.856 41.319 5.856C41.6603 5.856 41.9377 5.92 42.151 6.048C42.3643 6.176 42.407 6.38933 42.279 6.688L41.191 9.248C41.063 9.376 40.9563 9.54667 40.871 9.76C40.7857 9.93067 40.679 10.1013 40.551 10.272C40.5083 10.3573 40.423 10.4213 40.295 10.464C40.2097 10.464 40.1457 10.5067 40.103 10.592C40.0603 10.72 40.0817 10.784 40.167 10.784C40.2523 10.7413 40.2737 10.784 40.231 10.912C40.1457 11.2107 39.975 11.5733 39.719 12C39.5057 12.384 39.3137 12.704 39.143 12.96C39.1003 12.96 39.0577 12.9813 39.015 13.024C38.8443 13.024 38.759 12.9173 38.759 12.704C38.759 12.4907 38.695 12.3627 38.567 12.32C38.567 12.3627 38.5457 12.4053 38.503 12.448C38.503 12.4907 38.503 12.5547 38.503 12.64C38.503 12.8107 38.5243 12.9813 38.567 13.152C38.6523 13.3227 38.6737 13.5147 38.631 13.728C38.5457 13.7707 38.503 13.8987 38.503 14.112C38.503 14.24 38.439 14.3253 38.311 14.368C38.183 14.368 38.0977 14.4533 38.055 14.624L36.839 16.608L36.583 17.12C36.4977 17.2907 36.391 17.4613 36.263 17.632C36.135 17.8027 36.007 17.9947 35.879 18.208C35.751 18.4213 35.687 18.5493 35.687 18.592C35.687 18.592 35.623 18.6987 35.495 18.912C35.4523 18.9973 35.4097 19.1253 35.367 19.296C35.3243 19.4667 35.2603 19.616 35.175 19.744C35.175 19.744 35.0897 19.7227 34.919 19.68C34.7483 19.6373 34.663 19.6373 34.663 19.68C34.5777 19.808 34.535 19.9573 34.535 20.128C34.535 20.2133 34.535 20.32 34.535 20.448C34.5777 20.5333 34.6203 20.6827 34.663 20.896C34.663 21.0667 34.6417 21.1733 34.599 21.216C34.5137 21.3867 34.471 21.5147 34.471 21.6C34.471 21.6853 34.3643 21.856 34.151 22.112C33.9377 22.3253 33.831 22.4747 33.831 22.56C33.703 22.9867 33.639 23.2853 33.639 23.456C33.639 23.584 33.5537 23.8613 33.383 24.288L33.063 25.12C33.063 25.12 33.063 25.2053 33.063 25.376C33.063 25.5467 33.0417 25.632 32.999 25.632C32.9137 25.76 32.807 25.952 32.679 26.208C32.5937 26.4213 32.5083 26.656 32.423 26.912C32.679 26.8267 32.9137 26.7627 33.127 26.72C33.3403 26.6347 33.4897 26.592 33.575 26.592C33.831 26.5493 34.0443 26.5493 34.215 26.592C34.4283 26.592 34.6203 26.592 34.791 26.592C34.919 26.592 35.0257 26.5493 35.111 26.464C35.239 26.3787 35.3243 26.336 35.367 26.336C35.495 26.2933 35.6017 26.3147 35.687 26.4C35.7723 26.4427 35.815 26.464 35.815 26.464C35.815 26.464 35.815 26.528 35.815 26.656C35.815 26.7413 35.7723 26.8267 35.687 26.912C35.6443 26.9547 35.559 26.9547 35.431 26.912C35.303 26.8693 35.1963 26.8693 35.111 26.912C34.8123 26.9547 34.4283 27.0187 33.959 27.104C33.4897 27.1893 33.0203 27.2747 32.551 27.36C32.423 27.36 32.3163 27.3813 32.231 27.424C32.103 27.808 32.039 28.1493 32.039 28.448L31.847 29.024C31.8043 29.152 31.7617 29.3013 31.719 29.472C31.6763 29.6 31.6337 29.7067 31.591 29.792L31.527 30.112L31.463 30.176C31.4203 30.3467 31.4203 30.4747 31.463 30.56C31.5057 30.6453 31.5057 30.7947 31.463 31.008V31.776C31.8043 32.288 31.975 32.7147 31.975 33.056C31.975 33.3973 31.8897 33.696 31.719 33.952C31.5483 34.208 31.4417 34.5493 31.399 34.976C31.3563 35.2747 31.1643 35.5947 30.823 35.936C30.5243 36.2773 30.055 36.448 29.415 36.448ZM29.735 32.736C29.8203 32.736 29.9057 32.6293 29.991 32.416C30.119 32.2027 30.2683 31.8187 30.439 31.264L30.503 30.752C30.5457 30.6667 30.5883 30.5173 30.631 30.304C30.7163 30.048 30.7803 29.8987 30.823 29.856V29.792C31.0363 29.536 31.1643 29.3013 31.207 29.088C31.2497 28.832 31.271 28.5547 31.271 28.256V28L31.399 27.552C31.1857 27.5947 30.887 27.68 30.503 27.808C30.119 27.936 29.6923 28.0213 29.223 28.064C28.455 28.1493 27.623 28.2773 26.727 28.448C25.8737 28.6187 25.1057 28.7253 24.423 28.768C24.295 28.768 24.1457 28.7893 23.975 28.832C23.8043 28.832 23.6763 28.8107 23.591 28.768C23.463 28.6827 23.399 28.5973 23.399 28.512C23.3563 28.3413 23.2497 28.2773 23.079 28.32C22.951 28.3627 22.887 28.384 22.887 28.384C22.8443 28.384 22.7803 28.4267 22.695 28.512C22.6523 28.5547 22.5883 28.576 22.503 28.576C22.3323 28.576 22.183 28.5973 22.055 28.64C21.9697 28.6827 21.8417 28.704 21.671 28.704C21.5003 28.6613 21.3297 28.6187 21.159 28.576C20.9883 28.5333 20.839 28.512 20.711 28.512C20.5403 28.5547 20.3483 28.5973 20.135 28.64C19.9643 28.64 19.7723 28.6613 19.559 28.704C19.5163 28.704 19.4737 28.704 19.431 28.704C19.431 28.6613 19.4097 28.64 19.367 28.64C19.1537 28.64 19.047 28.7467 19.047 28.96C19.047 29.2587 19.239 29.344 19.623 29.216L21.159 29.408H21.607L21.671 29.472C21.7563 29.5147 21.8417 29.5573 21.927 29.6C22.055 29.6427 22.183 29.6853 22.311 29.728C22.6523 29.856 23.1003 29.9413 23.655 29.984C24.2523 30.0267 24.7003 30.112 24.999 30.24L25.703 30.56C25.8737 30.6027 26.0017 30.624 26.087 30.624C26.1723 30.624 26.3003 30.6453 26.471 30.688L26.791 31.072C26.9617 31.1147 27.0683 31.1147 27.111 31.072C27.1537 31.0293 27.239 31.0507 27.367 31.136L28.007 31.52C28.135 31.7333 28.3057 31.8827 28.519 31.968C28.7323 32.0533 28.8603 32.096 28.903 32.096C29.1163 32.1813 29.2657 32.3093 29.351 32.48C29.479 32.6507 29.607 32.736 29.735 32.736ZM40.8445 36.576C39.9058 36.576 39.0738 36.32 38.3485 35.808C37.6658 35.2533 37.3245 34.3147 37.3245 32.992C37.3245 32.5227 37.4098 31.8613 37.5805 31.008C37.7512 30.1547 38.0285 29.2587 38.4125 28.32C38.6258 27.808 38.8605 27.3173 39.1165 26.848C39.4152 26.3787 39.6925 25.9307 39.9485 25.504C39.9912 25.4613 40.1192 25.504 40.3325 25.632C40.5885 25.76 40.7378 25.8027 40.7805 25.76C40.8232 25.6747 40.7592 25.5893 40.5885 25.504C40.4605 25.376 40.4178 25.2907 40.4605 25.248C40.5458 25.1627 40.6098 25.12 40.6525 25.12C40.7378 25.0773 40.8018 25.0133 40.8445 24.928C40.8872 24.8427 40.9085 24.7573 40.9085 24.672C40.9085 24.544 40.8445 24.4373 40.7165 24.352C40.6312 24.2667 40.6738 24.1387 40.8445 23.968C41.0578 23.6693 41.2925 23.392 41.5485 23.136C41.8472 22.8373 42.1032 22.5813 42.3165 22.368C42.4018 22.2827 42.5085 22.1547 42.6365 21.984C42.7645 21.7707 42.8498 21.6427 42.8925 21.6L43.0205 21.472C43.0632 21.4293 43.1058 21.3867 43.1485 21.344C43.1485 21.3013 43.1485 21.28 43.1485 21.28C43.1912 21.28 43.2125 21.2587 43.2125 21.216C43.2125 21.088 43.0845 20.96 42.8285 20.832C42.5725 20.704 42.4445 20.6187 42.4445 20.576C42.4445 20.5333 42.4232 20.4907 42.3805 20.448C42.3378 20.4053 42.2952 20.3413 42.2525 20.256C42.2952 20.256 42.3378 20.2133 42.3805 20.128C42.4658 20 42.5298 19.936 42.5725 19.936C42.6152 19.936 42.7005 19.9787 42.8285 20.064C42.9565 20.1067 43.0418 20.128 43.0845 20.128C43.1272 20.128 43.1485 20.1067 43.1485 20.064C43.1912 20.0213 43.2338 20 43.2765 20C43.3618 20 43.5538 20.064 43.8525 20.192C44.1512 20.2773 44.3218 20.32 44.3645 20.32C44.4072 20.32 44.5352 20.2133 44.7485 20C44.9618 19.7867 45.0898 19.6587 45.1325 19.616C45.2178 19.5307 45.2818 19.4453 45.3245 19.36C45.3672 19.232 45.4738 19.0827 45.6445 18.912H45.7085C45.7512 18.8693 45.7725 18.8267 45.7725 18.784C45.7725 18.7413 45.7725 18.72 45.7725 18.72C45.8578 18.6347 45.9218 18.5707 45.9645 18.528C46.0498 18.4427 46.1138 18.3787 46.1565 18.336C46.1992 18.2933 46.2205 18.272 46.2205 18.272C46.2632 18.272 46.2845 18.272 46.2845 18.272C46.3272 18.1867 46.3698 18.1227 46.4125 18.08C46.4978 18.0373 46.5618 17.9947 46.6045 17.952L46.7325 17.696C46.8178 17.6107 47.1165 17.4187 47.6285 17.12C48.1405 16.8213 48.5245 16.672 48.7805 16.672H49.1005C49.1005 16.672 49.1005 16.6933 49.1005 16.736C49.1005 16.736 49.1218 16.736 49.1645 16.736C49.2072 16.736 49.2498 16.736 49.2925 16.736C49.3352 16.6933 49.3778 16.672 49.4205 16.672C49.4205 16.672 49.4845 16.736 49.6125 16.864C49.6552 16.9067 49.6978 16.928 49.7405 16.928C49.7832 16.8853 49.8258 16.864 49.8685 16.864C49.9112 16.9067 49.9325 16.9493 49.9325 16.992C49.9325 17.0347 49.9538 17.056 49.9965 17.056C50.0818 17.056 50.1032 17.056 50.0605 17.056C50.0605 17.0133 50.0818 16.992 50.1245 16.992C50.1672 16.992 50.1885 17.0347 50.1885 17.12C50.1885 17.2053 50.2098 17.2907 50.2525 17.376C50.2098 17.504 50.1672 17.6533 50.1245 17.824C50.1245 17.952 50.1032 18.0587 50.0605 18.144C49.6765 18.656 49.3778 18.912 49.1645 18.912C49.1645 18.9547 49.1005 19.04 48.9725 19.168C48.8445 19.168 48.6952 19.2107 48.5245 19.296C48.3538 19.3813 48.1832 19.4667 48.0125 19.552V19.744C48.0125 19.9147 47.9485 20 47.8205 20C47.7352 19.9573 47.6498 20.0213 47.5645 20.192V20.256C47.6498 20.384 47.7992 20.448 48.0125 20.448L48.4605 20.512C48.5458 20.512 48.5885 20.4907 48.5885 20.448C48.6312 20.4053 48.6738 20.384 48.7165 20.384C48.7592 20.384 48.7805 20.4053 48.7805 20.448C48.7805 20.448 48.8018 20.448 48.8445 20.448C48.9298 20.448 48.9938 20.4267 49.0365 20.384C49.0792 20.3413 49.1218 20.32 49.1645 20.32L49.7405 20.384C49.6125 20.1707 49.5485 20 49.5485 19.872C49.5485 19.6587 49.7405 19.5307 50.1245 19.488C50.7218 19.488 51.2338 19.7013 51.6605 20.128C51.7458 20.0853 51.8525 20.0853 51.9805 20.128C52.1085 20.1707 52.2365 20.1707 52.3645 20.128L52.6845 19.936L52.7485 20C52.9192 19.9147 53.0258 19.872 53.0685 19.872C53.1538 19.872 53.1752 19.8933 53.1325 19.936C53.1325 19.936 53.1538 19.936 53.1965 19.936C53.1965 19.936 53.2392 19.8933 53.3245 19.808C53.3672 19.808 53.4098 19.8293 53.4525 19.872C53.5378 19.872 53.6018 19.8507 53.6445 19.808L53.8365 19.616H54.6045L54.6685 19.552C54.7538 19.5093 54.8605 19.4667 54.9885 19.424C55.1592 19.3387 55.3085 19.296 55.4365 19.296C55.4365 19.2533 55.4792 19.232 55.5645 19.232C55.6498 19.1893 55.7138 19.168 55.7565 19.168H55.8845C56.0978 19.168 56.2045 19.232 56.2045 19.36C56.2045 19.488 56.1405 19.5947 56.0125 19.68C55.9698 19.7227 55.9058 19.744 55.8205 19.744C55.7352 19.7013 55.6498 19.7013 55.5645 19.744C55.3938 19.9147 55.2658 20 55.1805 20C55.1378 20 55.1165 20 55.1165 20C55.1165 19.9573 55.0952 19.936 55.0525 19.936C55.0098 19.936 54.9245 20 54.7965 20.128L54.3485 20.192H54.2845C54.1992 20.192 54.1565 20.2347 54.1565 20.32C53.9858 20.32 53.8152 20.3413 53.6445 20.384C53.4738 20.384 53.3032 20.4053 53.1325 20.448L53.0685 20.512C53.0258 20.512 52.9832 20.5333 52.9405 20.576C52.8978 20.576 52.8338 20.576 52.7485 20.576C52.6632 20.6187 52.4285 20.64 52.0445 20.64C52.3005 20.9813 52.4712 21.3013 52.5565 21.6C52.6418 21.8133 52.7058 22.1547 52.7485 22.624C52.8338 23.0507 52.8552 23.3707 52.8125 23.584C52.8125 23.712 52.7698 23.7547 52.6845 23.712C52.5992 23.6267 52.5565 23.6267 52.5565 23.712C52.5565 23.84 52.5992 23.9253 52.6845 23.968C52.8125 23.968 52.8765 24.0747 52.8765 24.288C52.8765 24.416 52.8552 24.5867 52.8125 24.8C52.7698 24.9707 52.7272 25.1627 52.6845 25.376C52.6418 25.632 52.5778 25.9093 52.4925 26.208C52.4498 26.464 52.3432 26.72 52.1725 26.976L51.9805 27.296V27.68C51.9805 28.0213 51.8738 28.256 51.6605 28.384C51.4898 28.512 51.3618 28.6613 51.2765 28.832C51.1912 29.088 51.1272 29.2587 51.0845 29.344C51.0845 29.4293 50.9992 29.6 50.8285 29.856C50.2738 30.7093 49.6125 31.52 48.8445 32.288C48.0765 33.056 47.3298 33.76 46.6045 34.4C45.9645 34.9547 45.0898 35.4667 43.9805 35.936C42.9138 36.3627 41.8685 36.576 40.8445 36.576ZM41.4845 35.424C41.6125 35.424 41.8685 35.4027 42.2525 35.36C42.6365 35.2747 43.0418 35.0827 43.4685 34.784C43.5538 34.7413 43.6392 34.7627 43.7245 34.848C43.8098 34.9333 43.8952 34.9547 43.9805 34.912C44.1938 34.8267 44.2792 34.7627 44.2365 34.72C44.1938 34.6773 44.2578 34.6347 44.4285 34.592H44.4925C44.7485 34.592 44.8552 34.5707 44.8125 34.528C44.8125 34.4427 44.8338 34.336 44.8765 34.208C44.8765 34.08 44.9405 33.9733 45.0685 33.888C45.1965 33.8027 45.3032 33.7387 45.3885 33.696C45.8578 33.312 46.4338 32.672 47.1165 31.776C47.7992 30.8373 48.4818 29.8987 49.1645 28.96C49.2072 28.8747 49.2712 28.8533 49.3565 28.896C49.4418 28.9387 49.5058 28.9387 49.5485 28.896C49.5912 28.8533 49.6125 28.7253 49.6125 28.512C49.6125 28.384 49.6765 28.192 49.8045 27.936C49.9325 27.6373 50.0605 27.4027 50.1885 27.232C50.2312 27.104 50.3165 26.8693 50.4445 26.528C50.5725 26.144 50.6792 25.8027 50.7645 25.504C50.8925 25.1627 50.9138 24.992 50.8285 24.992C50.7432 24.9493 50.7005 24.9067 50.7005 24.864C50.7005 24.7787 50.8285 24.6933 51.0845 24.608C51.3405 24.5227 51.3192 24.4587 51.0205 24.416C50.9352 24.3733 50.9565 24.288 51.0845 24.16C51.2125 24.032 51.1485 23.9467 50.8925 23.904C50.6792 23.8613 50.5938 23.7973 50.6365 23.712C50.7218 23.6267 50.7858 23.5627 50.8285 23.52C50.9565 23.392 51.0205 23.264 51.0205 23.136C51.0205 22.752 50.9138 22.368 50.7005 21.984C50.5298 21.6 50.3378 21.2587 50.1245 20.96C49.8685 21.1307 49.7405 21.216 49.7405 21.216C49.6978 21.216 49.6765 21.216 49.6765 21.216C49.6765 21.1733 49.6338 21.152 49.5485 21.152C49.5058 21.152 49.4845 21.152 49.4845 21.152C49.4845 21.1093 49.4632 21.088 49.4205 21.088C49.3778 21.088 49.3352 21.1093 49.2925 21.152C49.2498 21.1947 49.2285 21.216 49.2285 21.216C49.1858 21.2587 49.1005 21.28 48.9725 21.28C48.8872 21.28 48.8232 21.28 48.7805 21.28C48.7378 21.28 48.6952 21.2587 48.6525 21.216C48.6525 21.1733 48.6312 21.152 48.5885 21.152C48.5458 21.152 48.4818 21.1947 48.3965 21.28C48.3538 21.3653 48.2898 21.408 48.2045 21.408C48.1618 21.408 48.1405 21.3867 48.1405 21.344C48.1405 21.3013 48.0978 21.28 48.0125 21.28C47.9698 21.28 47.9272 21.3013 47.8845 21.344C47.8845 21.3867 47.8632 21.408 47.8205 21.408C47.7778 21.408 47.6925 21.344 47.5645 21.216H47.5005C47.5005 21.472 47.4365 21.6 47.3085 21.6C47.2658 21.6 47.2018 21.5573 47.1165 21.472C46.6472 21.7707 45.8578 22.4747 44.7485 23.584C43.6392 24.6507 42.6578 25.888 41.8045 27.296C41.6338 27.6373 41.4205 28.0427 41.1645 28.512C40.9512 28.9813 40.7592 29.5147 40.5885 30.112C40.5458 30.368 40.4178 30.56 40.2045 30.688C40.0338 30.816 39.9058 30.9653 39.8205 31.136C39.7778 31.3067 39.7992 31.4133 39.8845 31.456C39.9698 31.4987 40.0338 31.5627 40.0765 31.648C40.0765 31.8187 40.0338 32.0533 39.9485 32.352C39.9058 32.6507 39.8845 32.928 39.8845 33.184C39.8845 33.9947 40.0338 34.5707 40.3325 34.912C40.6738 35.2533 41.0578 35.424 41.4845 35.424ZM54.9465 36.192C54.6905 36.192 54.5625 36.0427 54.5625 35.744C54.5625 35.5307 54.6265 35.2747 54.7545 34.976C55.0958 34.2507 55.5012 33.2267 55.9705 31.904C56.4398 30.5813 57.0158 29.4507 57.6985 28.512L60.1945 22.944C60.1945 22.944 60.1518 22.9227 60.0665 22.88C59.9812 22.7947 59.9385 22.7093 59.9385 22.624C59.6825 22.4533 59.4052 22.2187 59.1065 21.92C58.8505 21.5787 58.8292 21.2373 59.0425 20.896C59.1278 20.8107 59.1918 20.768 59.2345 20.768C59.2772 20.768 59.2985 20.768 59.2985 20.768V20.64C59.2985 20.4693 59.3625 20.3627 59.4905 20.32C59.6612 20.2773 59.7678 20.2133 59.8105 20.128C59.8958 19.5307 60.3865 19.0827 61.2825 18.784C62.2212 18.4853 63.0532 18.336 63.7785 18.336C64.5038 18.336 64.8665 18.4427 64.8665 18.656C64.8665 18.784 64.7385 18.9333 64.4825 19.104C64.3972 19.1893 64.1838 19.3813 63.8425 19.68C63.5438 19.9787 63.2665 20.3413 63.0105 20.768L62.5625 21.536L62.1145 22.112C61.4318 23.3493 60.8772 24.3947 60.4505 25.248C60.0238 26.1013 59.5118 27.1893 58.9145 28.512C58.7865 28.768 58.7225 28.9813 58.7225 29.152C58.7225 29.3653 58.8078 29.472 58.9785 29.472C59.0638 29.472 59.1492 29.4507 59.2345 29.408C59.3625 29.3227 59.4905 29.2587 59.6185 29.216C59.9598 29.0027 60.2372 28.8107 60.4505 28.64C60.7065 28.4267 60.9838 28.2133 61.2825 28C61.4105 27.872 61.5172 27.872 61.6025 28C61.6878 28.0853 61.6878 28.2133 61.6025 28.384C61.4318 28.7253 61.3038 28.9387 61.2185 29.024C61.1758 29.0667 61.1118 29.1093 61.0265 29.152C60.9412 29.1947 60.7492 29.3867 60.4505 29.728L60.1945 30.24C60.1092 30.3253 60.0025 30.496 59.8745 30.752C59.7892 30.9653 59.7465 31.0933 59.7465 31.136C59.7465 31.2213 59.7038 31.264 59.6185 31.264C59.5332 31.2213 59.4052 31.2853 59.2345 31.456C59.1918 31.4987 59.1705 31.584 59.1705 31.712C59.2132 31.84 59.1918 31.9467 59.1065 32.032C59.0638 32.16 58.9998 32.2667 58.9145 32.352C58.8292 32.3947 58.7865 32.4373 58.7865 32.48C58.7438 32.6507 58.6585 32.7573 58.5305 32.8C58.4452 32.8 58.3598 32.8427 58.2745 32.928C58.2318 32.928 58.2105 32.9707 58.2105 33.056C58.2105 33.3973 58.1678 33.5467 58.0825 33.504C57.9972 33.4613 57.9118 33.504 57.8265 33.632C57.7412 33.8027 57.6345 33.888 57.5065 33.888C57.2505 33.9733 57.1438 34.0373 57.1865 34.08C57.2292 34.1227 57.2932 34.1653 57.3785 34.208C57.4638 34.208 57.3998 34.272 57.1865 34.4C57.0585 34.4427 56.9518 34.5707 56.8665 34.784C56.7812 34.9547 56.6958 35.0827 56.6105 35.168C56.5252 35.2533 56.4185 35.3173 56.2905 35.36C56.1625 35.4027 56.0558 35.488 55.9705 35.616C55.5865 36 55.2452 36.192 54.9465 36.192ZM66.3385 34.784C66.0825 34.784 65.8692 34.6987 65.6985 34.528H65.6345C65.2505 34.528 65.1865 34.3573 65.4425 34.016C65.4852 33.76 65.5705 33.568 65.6985 33.44C65.8265 33.2693 65.9758 33.0987 66.1465 32.928C66.1892 32.928 66.2105 32.928 66.2105 32.928C66.2105 32.8853 66.2105 32.864 66.2105 32.864C66.3385 32.5653 66.5092 32.3307 66.7225 32.16L66.9785 31.776C67.1492 31.6053 67.3198 31.3493 67.4905 31.008C67.6612 30.7947 67.7678 30.6453 67.8105 30.56C67.8532 30.432 67.9385 30.2187 68.0665 29.92C68.0665 29.8347 68.1305 29.7067 68.2585 29.536C68.3865 29.3653 68.4718 29.2587 68.5145 29.216L68.8985 28.256C68.9412 28.0427 69.0052 27.872 69.0905 27.744C69.1758 27.616 69.2398 27.4453 69.2825 27.232L69.6665 26.272C69.7518 25.9733 69.8585 25.76 69.9865 25.632H70.0505C70.0078 25.504 70.0505 25.3333 70.1785 25.12C70.2638 24.8213 70.3278 24.5653 70.3705 24.352C70.4558 24.096 70.4985 23.968 70.4985 23.968L70.6905 22.816C70.6478 22.048 70.3278 21.664 69.7305 21.664C69.5172 21.664 69.2398 21.728 68.8985 21.856C68.1732 22.0693 67.4052 22.5173 66.5945 23.2C66.5518 23.2427 66.4878 23.3067 66.4025 23.392C66.3598 23.4773 66.2958 23.5627 66.2105 23.648C66.1678 23.6907 66.1252 23.712 66.0825 23.712C66.0825 23.6693 66.0398 23.6907 65.9545 23.776C65.9118 23.8187 65.8905 23.8827 65.8905 23.968C65.8905 24.0107 65.8692 24.0533 65.8265 24.096C65.7838 24.1387 65.7198 24.1813 65.6345 24.224C65.5918 24.224 65.5278 24.2667 65.4425 24.352C65.3998 24.352 65.3572 24.3947 65.3145 24.48C65.3145 24.5227 65.2932 24.5653 65.2505 24.608C65.0798 24.7787 64.8665 24.992 64.6105 25.248C64.3545 25.4613 64.0772 25.6747 63.7785 25.888L63.5225 26.08C63.4798 26.1227 63.4158 26.208 63.3305 26.336C63.2878 26.4213 63.2238 26.5067 63.1385 26.592C62.9678 26.7627 62.8185 26.9547 62.6905 27.168C62.5625 27.3813 62.3918 27.5093 62.1785 27.552H62.0505C61.8372 27.552 61.8372 27.36 62.0505 26.976C62.0932 26.8907 62.1998 26.7413 62.3705 26.528C62.5838 26.3147 62.7118 26.1867 62.7545 26.144L63.0105 25.888C63.0958 25.8027 63.1385 25.7387 63.1385 25.696C63.1385 25.6533 63.1598 25.6107 63.2025 25.568L63.8425 24.992L64.0985 24.672L64.5465 24.352L65.8265 23.136C65.9118 23.0507 66.0398 22.9013 66.2105 22.688C66.4238 22.4747 66.5732 22.3467 66.6585 22.304C66.8718 22.0907 67.1065 21.92 67.3625 21.792C67.6185 21.6213 67.8745 21.4293 68.1305 21.216C68.3438 21.0453 68.5785 20.896 68.8345 20.768C69.0052 20.5973 69.1332 20.4907 69.2185 20.448C69.6025 20.2347 69.8158 20.1067 69.8585 20.064C69.9012 20.0213 70.0505 19.9573 70.3065 19.872C70.6905 19.744 71.1385 19.68 71.6505 19.68C71.9918 19.68 72.2052 19.7013 72.2905 19.744C72.5038 19.8293 72.7172 19.9147 72.9305 20C73.1438 20.0853 73.2505 20.2987 73.2505 20.64C73.2505 20.8533 73.2718 20.9813 73.3145 21.024C73.3572 21.024 73.3572 21.152 73.3145 21.408C73.3145 21.5787 73.2932 21.856 73.2505 22.24C73.2505 22.624 73.2078 22.9227 73.1225 23.136C73.0798 23.3493 72.9732 23.648 72.8025 24.032C72.6745 24.3733 72.5678 24.672 72.4825 24.928L72.2905 25.44L71.7145 26.464C71.6718 26.5067 71.5225 26.6133 71.2665 26.784C71.0105 26.912 70.8398 27.0187 70.7545 27.104C70.7118 27.1467 70.7758 27.232 70.9465 27.36C71.1172 27.488 71.0958 27.7013 70.8825 28C70.7972 28.1707 70.6905 28.2773 70.5625 28.32C70.4345 28.32 70.3065 28.4267 70.1785 28.64C69.6665 29.3653 69.2612 29.8773 68.9625 30.176L68.2585 31.136L68.0665 31.328C68.2372 31.328 68.3865 31.4347 68.5145 31.648C68.5572 31.776 68.6425 31.8827 68.7705 31.968C68.8985 32.0533 68.9625 32.224 68.9625 32.48C68.9625 32.7787 68.7918 33.2053 68.4505 33.76C68.1092 34.3147 67.7038 34.592 67.2345 34.592C67.0638 34.592 66.9145 34.6347 66.7865 34.72C66.6585 34.7627 66.5092 34.784 66.3385 34.784ZM83.5545 36.32C83.2132 36.32 82.9785 36.2987 82.8505 36.256C82.4238 36.1707 82.0398 36.0427 81.6985 35.872C81.3998 35.7013 81.1438 35.3813 80.9305 34.912C80.8452 34.6987 80.7385 34.4213 80.6105 34.08C80.4825 33.7387 80.3758 33.4187 80.2905 33.12C80.2478 32.9067 80.2265 32.6507 80.2265 32.352C80.2265 32.1813 80.2052 32.0533 80.1625 31.968C80.1625 31.84 80.1625 31.6907 80.1625 31.52C80.1625 31.3493 80.1412 31.1573 80.0985 30.944C80.0558 30.7307 80.0558 30.5387 80.0985 30.368V29.152C80.0985 28.9387 80.0985 28.7467 80.0985 28.576C80.0985 28.3627 80.1198 28.2133 80.1625 28.128C80.2478 27.744 80.2905 27.552 80.2905 27.552C80.2905 27.5093 80.3118 27.296 80.3545 26.912C80.3972 26.4 80.3972 25.8667 80.3545 25.312C80.3545 24.7573 80.3758 24.3093 80.4185 23.968C80.5465 22.688 80.3118 22.048 79.7145 22.048C79.4585 22.048 79.1172 22.1547 78.6905 22.368C78.6478 22.4533 78.5625 22.5173 78.4345 22.56C78.3065 22.56 78.1572 22.624 77.9865 22.752L77.7305 22.944C77.7305 22.9867 77.6665 23.008 77.5385 23.008C77.4532 22.9653 77.4318 22.9867 77.4745 23.072C77.4745 23.4133 77.3678 23.4987 77.1545 23.328L76.5145 23.84L76.3225 24.096L76.2585 24.16C76.0878 24.3307 75.9385 24.416 75.8105 24.416L75.5545 24.608C75.5545 24.6507 75.5118 24.736 75.4265 24.864C75.3838 24.9493 75.2985 24.9707 75.1705 24.928L74.8505 25.248C74.6798 25.504 74.5305 25.6533 74.4025 25.696C74.3172 25.7387 74.2105 25.7813 74.0825 25.824L73.5065 26.464L73.2505 26.528C73.2505 26.6987 73.0585 26.9547 72.6745 27.296C72.3332 27.6373 72.1198 27.872 72.0345 28C71.9065 28.128 71.7785 28.192 71.6505 28.192C71.5652 28.192 71.5225 28.1493 71.5225 28.064C71.5225 27.8933 71.6078 27.7227 71.7785 27.552C71.9492 27.3813 72.2052 27.0613 72.5465 26.592C72.9305 26.1227 73.1438 25.888 73.1865 25.888C73.3998 25.6747 73.5492 25.4613 73.6345 25.248C73.7198 25.0347 73.8692 24.8427 74.0825 24.672C74.0825 24.7573 74.1252 24.8 74.2105 24.8C74.2958 24.8 74.3812 24.6933 74.4665 24.48C74.5945 24.224 74.6798 24.1173 74.7225 24.16L75.8745 23.2C75.8318 23.1573 75.9385 23.072 76.1945 22.944C76.3652 22.8587 76.4718 22.816 76.5145 22.816C76.5572 22.816 76.6638 22.688 76.8345 22.432L77.2825 22.112C77.3252 22.0267 77.3678 22.0267 77.4105 22.112C77.4532 22.1973 77.5172 22.24 77.6025 22.24L77.7305 21.792C77.8158 21.6213 77.9652 21.4933 78.1785 21.408C78.3918 21.3227 78.6052 21.216 78.8185 21.088C79.0318 20.8747 79.2452 20.6827 79.4585 20.512C79.6718 20.3413 79.8425 20.2773 79.9705 20.32H80.2265C80.7812 20.1067 81.2718 20 81.6985 20C82.3812 20 82.9145 20.256 83.2985 20.768C83.4692 20.9813 83.5758 21.216 83.6185 21.472C83.6612 21.5147 83.6612 21.5787 83.6185 21.664C83.6185 21.7067 83.6398 21.7707 83.6825 21.856C83.7252 21.9413 83.8105 22.048 83.9385 22.176C84.0665 22.2613 84.1305 22.368 84.1305 22.496V22.624C84.1305 22.752 84.0452 22.9013 83.8745 23.072C84.0878 23.2427 84.1732 23.3493 84.1305 23.392C84.0878 23.392 84.0452 23.456 84.0025 23.584L83.9385 24.48C83.8958 24.7787 83.8105 25.0133 83.6825 25.184C83.5972 25.312 83.5118 25.5467 83.4265 25.888C83.5972 26.144 83.5972 26.2933 83.4265 26.336C83.4265 26.3787 83.3838 26.4 83.2985 26.4L83.2345 26.656C83.3198 26.8267 83.3625 26.912 83.3625 26.912L83.1705 27.296C83.1705 27.296 83.2345 27.296 83.3625 27.296C83.2772 27.3813 83.1918 27.552 83.1065 27.808C83.0638 28.0213 83.0212 28.192 82.9785 28.32C82.9358 28.5333 82.8505 28.64 82.7225 28.64C82.5945 28.64 82.5518 28.7467 82.5945 28.96C82.6372 29.0027 82.6585 29.152 82.6585 29.408C82.6585 29.6213 82.6158 29.728 82.5305 29.728L82.4025 30.496C82.4025 30.5387 82.4025 30.5813 82.4025 30.624C82.4452 30.6667 82.4665 30.7093 82.4665 30.752C82.4665 30.9653 82.4238 31.1787 82.3385 31.392C82.2958 31.5627 82.2318 31.7547 82.1465 31.968C82.1038 32.1813 82.0612 32.416 82.0185 32.672C82.0185 32.8853 82.0185 33.0987 82.0185 33.312C82.0185 33.4827 82.0185 33.6747 82.0185 33.888C82.0612 34.0587 82.1038 34.2293 82.1465 34.4C82.1892 34.4427 82.2532 34.5707 82.3385 34.784C82.4665 34.9973 82.5305 35.1253 82.5305 35.168C82.6158 35.2533 82.6798 35.296 82.7225 35.296C82.8078 35.3387 82.9358 35.36 83.1065 35.36C83.3198 35.3173 83.4692 35.3387 83.5545 35.424C83.9385 35.4667 84.4292 35.2747 85.0265 34.848C85.6665 34.3787 86.2425 33.8667 86.7545 33.312C86.8825 33.184 87.0105 33.12 87.1385 33.12C87.2665 33.12 87.3518 33.184 87.3945 33.312C87.4372 33.44 87.3945 33.6107 87.2665 33.824C86.5412 34.8053 85.8585 35.4667 85.2185 35.808C84.6212 36.1493 84.0665 36.32 83.5545 36.32ZM93.968 36.128C92.9013 36.128 91.9627 35.8293 91.152 35.232C90.3413 34.6347 89.936 33.6107 89.936 32.16C89.936 31.6053 90 31.0507 90.128 30.496C90.256 29.8987 90.4053 29.3227 90.576 28.768C90.6613 28.2133 90.7893 27.7227 90.96 27.296C91.0027 27.1253 91.024 27.04 91.024 27.04C91.0667 26.9973 91.1733 26.9333 91.344 26.848L91.856 26.08V25.824C91.8133 25.824 91.792 25.824 91.792 25.824C91.792 25.7813 91.792 25.76 91.792 25.76C91.792 25.632 91.8987 25.4827 92.112 25.312C92.3253 25.1413 92.432 25.056 92.432 25.056C92.4747 24.8427 92.5387 24.736 92.624 24.736C92.7093 24.736 92.816 24.672 92.944 24.544H93.648V24.416C93.648 24.2027 93.5413 24.1173 93.328 24.16C93.1573 24.16 93.072 24.1387 93.072 24.096C93.072 24.0533 93.136 23.968 93.264 23.84C93.4347 23.6693 93.5413 23.5627 93.584 23.52C93.712 23.3493 93.8187 23.2 93.904 23.072C93.9893 22.9013 94.1173 22.7733 94.288 22.688C95.056 21.7493 95.5253 21.152 95.696 20.896C95.9093 20.64 96.1227 20.448 96.336 20.32C96.4213 20.32 96.4853 20.3627 96.528 20.448C96.6133 20.4907 96.6133 20.5547 96.528 20.64C96.6133 20.768 96.6773 20.7893 96.72 20.704C96.8053 20.6187 96.848 20.576 96.848 20.576L97.104 20.448C97.0187 20.3627 96.976 20.256 96.976 20.128C96.976 19.9147 97.0187 19.744 97.104 19.616C97.1893 19.4453 97.3387 19.2747 97.552 19.104C97.808 18.9333 97.936 18.8267 97.936 18.784C98.192 18.6987 98.384 18.6133 98.512 18.528C98.6827 18.4427 98.8533 18.4 99.024 18.4C99.3227 18.4 99.6213 18.5067 99.92 18.72C100.731 19.1467 101.413 19.5733 101.968 20C102.523 20.4267 102.8 21.024 102.8 21.792C102.8 22.6027 102.459 23.3067 101.776 23.904C101.136 24.4587 100.347 24.928 99.408 25.312C98.4693 25.696 97.5307 26.016 96.592 26.272C95.696 26.4853 94.992 26.656 94.48 26.784C94.1813 26.8267 94.032 26.9547 94.032 27.168C94.0747 27.3387 94.0533 27.5307 93.968 27.744L93.52 28.448L93.136 29.344L92.816 29.92C92.5173 30.176 92.4107 30.368 92.496 30.496C92.5813 30.624 92.7307 30.6027 92.944 30.432C92.9867 30.4747 93.008 30.5387 93.008 30.624C93.008 30.7947 92.9653 31.008 92.88 31.264C92.7947 31.4773 92.7307 31.648 92.688 31.776C92.6453 31.9467 92.6453 32.032 92.688 32.032C92.7733 31.9893 92.816 32.0747 92.816 32.288L92.88 33.184C93.136 33.9947 93.712 34.464 94.608 34.592C94.6933 34.592 94.7787 34.6133 94.864 34.656C94.992 34.656 95.0987 34.656 95.184 34.656C95.952 34.656 96.3573 34.592 96.4 34.464C96.4853 34.336 96.592 34.2507 96.72 34.208C97.104 34.1227 97.424 34.0373 97.68 33.952C97.9787 33.8667 98.2773 33.7387 98.576 33.568C99.088 33.3547 99.5787 33.0773 100.048 32.736C100.517 32.3947 101.008 32.0533 101.52 31.712L102.16 31.264C102.203 31.1787 102.203 31.1147 102.16 31.072C102.117 31.0293 102.117 30.9867 102.16 30.944C102.245 30.9013 102.309 30.9013 102.352 30.944C102.437 30.944 102.501 30.9227 102.544 30.88C102.629 30.8373 102.715 30.7733 102.8 30.688C102.885 30.56 102.971 30.4533 103.056 30.368C103.141 30.2827 103.184 30.1973 103.184 30.112C103.227 30.0267 103.291 29.9413 103.376 29.856C103.717 29.5147 104.059 29.152 104.4 28.768C104.784 28.384 105.104 28.0427 105.36 27.744C105.659 27.3173 105.893 27.104 106.064 27.104C106.149 27.104 106.192 27.1467 106.192 27.232C106.192 27.4453 106.043 27.7653 105.744 28.192C105.019 29.2587 104.187 30.304 103.248 31.328C102.309 32.3093 101.285 33.2053 100.176 34.016C99.3653 34.5707 98.4053 35.0613 97.296 35.488C96.1867 35.9147 95.0773 36.128 93.968 36.128ZM94.928 25.824C95.568 25.7813 96.4 25.6107 97.424 25.312C98.448 24.9707 99.3013 24.5227 99.984 23.968C100.709 23.3707 101.072 22.7093 101.072 21.984C101.072 21.3013 100.709 20.64 99.984 20C99.3867 20.4267 98.7253 21.0453 98 21.856C97.3173 22.624 96.6987 23.392 96.144 24.16C95.5893 24.8853 95.184 25.44 94.928 25.824ZM118.012 40.672C116.134 40.672 114.321 39.8613 112.572 38.24C112.316 38.1547 112.102 37.9627 111.932 37.664C111.761 37.408 111.59 37.1947 111.42 37.024C111.121 36.9387 110.929 36.8107 110.844 36.64C110.758 36.4693 110.673 36.256 110.588 36C110.588 35.9573 110.545 35.8933 110.46 35.808C110.417 35.7653 110.374 35.7227 110.332 35.68C110.289 35.6373 110.246 35.5947 110.204 35.552C110.161 35.552 110.14 35.552 110.14 35.552C110.182 35.5093 110.204 35.488 110.204 35.488C110.033 35.1467 109.926 34.912 109.884 34.784C109.841 34.6133 109.67 34.4 109.372 34.144C109.286 34.0587 109.201 33.9307 109.116 33.76C109.073 33.5467 109.03 33.376 108.988 33.248C108.518 32.1387 108.092 31.008 107.708 29.856C107.366 28.6613 107.196 27.4453 107.196 26.208C107.196 25.7813 107.324 25.4613 107.58 25.248C107.836 25.0347 108.113 24.928 108.411 24.928C108.966 24.928 109.329 25.2053 109.5 25.76C109.585 25.9307 109.67 26.1227 109.756 26.336C109.884 26.5067 109.948 26.6773 109.948 26.848V27.488C109.948 27.744 110.012 27.808 110.14 27.68C110.31 27.5093 110.417 27.5307 110.46 27.744C110.545 28.0427 110.609 28.2347 110.652 28.32C110.694 28.3627 110.865 28.4693 111.164 28.64C111.249 28.8107 111.356 28.9813 111.484 29.152C111.612 29.3227 111.74 29.4933 111.868 29.664V29.792C111.868 30.048 111.953 30.24 112.124 30.368C112.294 30.4533 112.486 30.56 112.7 30.688L113.532 31.584C113.489 31.6693 113.468 31.7547 113.468 31.84C113.468 32.096 113.596 32.2667 113.852 32.352C114.15 32.4373 114.406 32.5227 114.62 32.608C114.662 32.6507 114.897 32.864 115.324 33.248C115.793 33.5893 116.113 33.8027 116.284 33.888C116.497 34.016 116.732 34.1653 116.988 34.336C117.244 34.464 117.5 34.5707 117.756 34.656C117.841 34.656 117.926 34.6987 118.012 34.784C118.78 35.0827 119.484 35.232 120.124 35.232C120.721 35.232 121.404 35.104 122.172 34.848C122.3 34.8053 122.406 34.784 122.492 34.784C122.62 34.7413 122.705 34.72 122.748 34.72C122.876 34.72 122.94 34.7627 122.94 34.848C122.94 35.0613 122.748 35.2747 122.364 35.488C122.364 35.5733 122.3 35.616 122.172 35.616C122.001 35.6587 121.83 35.7227 121.66 35.808C121.489 35.8933 121.318 35.9147 121.148 35.872C120.934 35.872 120.764 35.8507 120.635 35.808C120.508 35.7653 120.337 35.8293 120.124 36C119.569 35.9573 118.95 35.8293 118.268 35.616C117.585 35.4027 117.009 35.168 116.54 34.912C116.497 34.6133 116.305 34.464 115.964 34.464C115.622 34.4213 115.345 34.3147 115.132 34.144C114.961 33.9307 114.812 33.696 114.684 33.44C114.598 33.184 114.385 33.1627 114.044 33.376C113.873 33.2053 113.724 33.0773 113.595 32.992C113.468 32.864 113.276 32.8 113.02 32.8C112.934 32.7147 112.806 32.6293 112.635 32.544C112.508 32.4587 112.465 32.3307 112.508 32.16C112.337 32.032 111.996 31.8187 111.484 31.52C111.014 31.1787 110.737 30.9653 110.652 30.88C110.268 30.4533 109.841 30.0907 109.372 29.792L109.18 29.664C109.734 31.328 110.396 32.9493 111.164 34.528C111.974 36.1067 113.148 37.3867 114.684 38.368C115.409 38.7947 116.07 39.136 116.668 39.392C117.308 39.6907 117.926 39.84 118.524 39.84C119.633 39.84 120.806 39.2853 122.044 38.176C123.11 37.1947 124.07 36.0213 124.924 34.656C125.777 33.248 126.545 31.776 127.228 30.24C127.91 28.704 128.508 27.2747 129.02 25.952C129.105 25.8667 129.169 25.8027 129.212 25.76C129.254 25.7173 129.297 25.6747 129.34 25.632C129.468 25.3333 129.553 24.992 129.596 24.608C129.681 24.1813 129.766 23.8187 129.852 23.52C130.065 23.264 130.257 22.9653 130.428 22.624C130.641 22.24 130.748 21.8773 130.748 21.536L130.876 21.216C130.961 21.1733 130.94 21.1093 130.812 21.024C130.684 20.9387 130.769 20.8747 131.068 20.832C131.366 20.3627 131.537 19.8933 131.58 19.424C131.665 18.912 131.793 18.5493 131.964 18.336C132.092 18.1227 132.22 17.9307 132.348 17.76C132.476 17.5893 132.497 17.376 132.412 17.12C132.454 16.9493 132.582 16.544 132.796 15.904C133.052 15.2213 133.329 14.4747 133.628 13.664C133.926 12.8533 134.182 12.1493 134.396 11.552C134.609 10.912 134.716 10.5493 134.716 10.464L135.42 8.608C134.225 8.65067 132.988 8.71467 131.708 8.8C130.47 8.88533 129.254 9.07733 128.06 9.376C128.102 9.33333 128.081 9.29067 127.996 9.248C127.91 9.16267 127.846 9.12 127.804 9.12L127.74 9.056C127.569 9.01333 127.526 9.056 127.612 9.184C127.74 9.26933 127.718 9.35467 127.548 9.44C127.164 9.48266 126.716 9.58933 126.204 9.76C125.734 9.888 125.308 9.952 124.924 9.952C124.753 9.99467 124.561 10.016 124.348 10.016C124.134 9.97333 123.921 9.952 123.708 9.952C123.068 9.99467 122.428 10.1653 121.788 10.464C121.19 10.7627 120.572 11.0187 119.932 11.232L118.78 11.552C118.31 11.7653 117.798 11.9147 117.244 12C116.689 12.0853 116.177 12.2347 115.708 12.448L115.772 12.512C115.601 12.64 115.388 12.7253 115.132 12.768C114.876 12.8107 114.641 12.8747 114.428 12.96C113.916 13.1307 113.382 13.344 112.828 13.6C112.316 13.8133 111.782 14.0053 111.228 14.176C110.929 14.2613 110.63 14.3467 110.332 14.432C110.076 14.4747 109.777 14.56 109.436 14.688C109.265 14.7307 109.116 14.7733 108.988 14.816C108.86 14.816 108.71 14.816 108.54 14.816C108.156 14.816 107.814 14.7307 107.516 14.56C107.345 14.4747 107.089 14.24 106.748 13.856C106.449 13.4293 106.193 13.0027 105.98 12.576C105.766 12.1067 105.681 11.7653 105.724 11.552C105.766 11.424 106.044 11.2747 106.556 11.104C107.068 10.8907 107.665 10.6987 108.348 10.528C109.03 10.3147 109.649 10.144 110.204 10.016C110.801 9.84533 111.185 9.73867 111.356 9.696C111.441 9.65333 111.676 9.61067 112.06 9.568C112.444 9.48267 112.657 9.52533 112.7 9.696C112.742 9.78133 112.7 9.90933 112.572 10.08C112.444 10.208 112.337 10.3147 112.252 10.4C112.252 10.4427 112.188 10.528 112.06 10.656C111.974 10.784 111.974 10.8267 112.06 10.784L114.3 10.208C114.641 10.1227 115.046 10.1013 115.516 10.144C116.028 10.144 116.412 10.0587 116.668 9.888C116.753 9.80267 116.796 9.71733 116.796 9.632C116.838 9.54666 116.924 9.504 117.052 9.504C117.35 9.41867 117.841 9.33333 118.524 9.248C119.249 9.16267 119.697 9.03467 119.868 8.864C120.209 8.77866 120.572 8.736 120.956 8.736C121.34 8.69333 121.681 8.58667 121.98 8.416C122.108 8.37333 122.513 8.288 123.196 8.16C123.921 8.032 124.732 7.904 125.628 7.776C126.566 7.60533 127.398 7.47733 128.124 7.392C128.849 7.264 129.276 7.2 129.404 7.2H129.468C129.638 7.2 129.809 7.17867 129.98 7.136C130.15 7.09333 130.321 7.072 130.492 7.072C130.833 7.072 131.004 7.22133 131.004 7.52C131.046 7.56266 131.153 7.584 131.324 7.584C131.708 7.584 132.006 7.47733 132.22 7.264C132.39 7.22133 132.518 7.15733 132.604 7.072C132.732 6.98667 132.881 6.92267 133.052 6.88C133.521 6.79467 134.012 6.77333 134.524 6.816C135.078 6.816 135.569 6.816 135.996 6.816C136.294 6.176 136.614 5.74933 136.956 5.536C137.297 5.28 137.809 5.152 138.492 5.152C138.961 5.152 139.26 5.38667 139.388 5.856C139.516 6.28267 139.58 6.66667 139.58 7.008C139.793 7.008 140.07 7.008 140.412 7.008C140.753 6.96533 141.116 6.944 141.5 6.944C141.884 6.944 142.246 6.96533 142.588 7.008C142.972 7.05067 143.27 7.11467 143.484 7.2C143.526 7.072 143.633 7.02933 143.804 7.072C144.017 7.072 144.166 7.09333 144.252 7.136C144.593 7.30666 144.956 7.392 145.34 7.392C145.766 7.34933 146.172 7.41333 146.556 7.584C146.94 7.712 147.302 7.86133 147.644 8.032C147.985 8.20267 148.348 8.352 148.732 8.48C149.073 8.56533 149.329 8.69333 149.5 8.864C149.713 9.03467 149.969 9.22667 150.268 9.44C150.609 9.696 150.822 9.93067 150.908 10.144C150.908 10.144 150.929 10.2293 150.972 10.4C151.014 10.528 150.972 10.5707 150.844 10.528C150.801 10.528 150.737 10.528 150.652 10.528C150.609 10.4853 150.566 10.4853 150.524 10.528C150.524 10.6987 150.588 10.848 150.716 10.976C150.801 11.0187 150.886 11.0187 150.972 10.976C151.1 10.9333 151.185 10.8907 151.228 10.848C151.398 10.848 151.484 10.9333 151.484 11.104C151.526 11.2747 151.569 11.4453 151.612 11.616C151.74 12.128 151.804 12.64 151.804 13.152C151.804 13.7067 151.654 14.3253 151.356 15.008C151.1 15.6907 150.737 16.288 150.268 16.8C149.798 17.2693 149.244 17.504 148.604 17.504C148.39 17.504 148.22 17.4827 148.092 17.44C147.622 17.312 147.388 17.184 147.388 17.056C147.388 16.928 147.601 16.7147 148.028 16.416C148.326 16.2027 148.582 15.968 148.796 15.712C149.009 15.4133 149.201 15.1147 149.372 14.816C149.67 14.6027 149.905 14.176 150.076 13.536C150.246 12.896 150.332 12.2987 150.332 11.744C150.332 11.3173 150.268 10.976 150.14 10.72C150.097 10.72 149.905 10.4853 149.564 10.016C149.265 9.54667 148.902 9.29067 148.476 9.248C148.262 9.16267 148.028 9.07733 147.772 8.992C147.558 8.90667 147.345 8.84267 147.132 8.8C146.961 8.62933 146.62 8.50133 146.108 8.416C145.638 8.33066 145.148 8.26667 144.636 8.224C144.124 8.18133 143.74 8.16 143.484 8.16C143.27 8.16 142.886 8.18133 142.332 8.224C141.777 8.224 141.222 8.24533 140.668 8.288C140.113 8.288 139.729 8.288 139.516 8.288C139.132 9.39733 138.47 10.0587 137.532 10.272C137.489 10.4 137.318 10.848 137.02 11.616C136.721 12.384 136.401 13.2373 136.06 14.176C135.718 15.072 135.398 15.8827 135.1 16.608C134.844 17.2907 134.694 17.6747 134.652 17.76C134.524 17.9307 134.396 18.1013 134.268 18.272C134.14 18.4427 134.054 18.6347 134.012 18.848C133.969 19.2747 133.777 19.872 133.436 20.64C133.137 21.408 132.796 22.176 132.412 22.944C132.07 23.6693 131.793 24.2667 131.58 24.736C131.324 24.9067 131.11 25.056 130.94 25.184C130.769 25.2693 130.812 25.4613 131.068 25.76C130.94 26.0587 130.812 26.208 130.684 26.208C130.556 26.1653 130.385 26.1227 130.172 26.08C130.214 26.2933 130.278 26.4427 130.364 26.528C130.449 26.5707 130.513 26.6987 130.556 26.912C130.214 27.68 129.788 28.6187 129.276 29.728C128.764 30.7947 128.252 31.648 127.74 32.288C127.441 32.416 127.206 32.544 127.036 32.672C126.865 32.8 126.865 33.056 127.036 33.44C126.95 33.5253 126.886 33.632 126.844 33.76C126.801 33.888 126.758 34.016 126.716 34.144L126.204 34.912C126.033 35.04 125.862 35.1893 125.692 35.36C125.521 35.488 125.436 35.7013 125.436 36C125.265 36.256 125.116 36.448 124.988 36.576C124.732 36.6613 124.518 36.768 124.348 36.896C124.177 37.024 124.092 37.2587 124.092 37.6C123.238 38.5387 122.278 39.2853 121.212 39.84C120.188 40.3947 119.121 40.672 118.012 40.672ZM147.781 36.128C146.714 36.128 145.775 35.8293 144.965 35.232C144.154 34.6347 143.748 33.6107 143.748 32.16C143.748 31.6053 143.812 31.0507 143.941 30.496C144.069 29.8987 144.218 29.3227 144.389 28.768C144.474 28.2133 144.602 27.7227 144.773 27.296C144.815 27.1253 144.837 27.04 144.837 27.04C144.879 26.9973 144.986 26.9333 145.157 26.848L145.669 26.08V25.824C145.626 25.824 145.605 25.824 145.605 25.824C145.605 25.7813 145.605 25.76 145.605 25.76C145.605 25.632 145.711 25.4827 145.924 25.312C146.138 25.1413 146.245 25.056 146.245 25.056C146.287 24.8427 146.351 24.736 146.437 24.736C146.522 24.736 146.629 24.672 146.757 24.544H147.461V24.416C147.461 24.2027 147.354 24.1173 147.141 24.16C146.97 24.16 146.885 24.1387 146.885 24.096C146.885 24.0533 146.949 23.968 147.077 23.84C147.247 23.6693 147.354 23.5627 147.397 23.52C147.525 23.3493 147.631 23.2 147.717 23.072C147.802 22.9013 147.93 22.7733 148.101 22.688C148.869 21.7493 149.338 21.152 149.509 20.896C149.722 20.64 149.935 20.448 150.149 20.32C150.234 20.32 150.298 20.3627 150.341 20.448C150.426 20.4907 150.426 20.5547 150.341 20.64C150.426 20.768 150.49 20.7893 150.533 20.704C150.618 20.6187 150.661 20.576 150.661 20.576L150.917 20.448C150.831 20.3627 150.789 20.256 150.789 20.128C150.789 19.9147 150.831 19.744 150.917 19.616C151.002 19.4453 151.151 19.2747 151.365 19.104C151.621 18.9333 151.749 18.8267 151.749 18.784C152.005 18.6987 152.197 18.6133 152.325 18.528C152.495 18.4427 152.666 18.4 152.837 18.4C153.135 18.4 153.434 18.5067 153.733 18.72C154.543 19.1467 155.226 19.5733 155.781 20C156.335 20.4267 156.613 21.024 156.613 21.792C156.613 22.6027 156.271 23.3067 155.589 23.904C154.949 24.4587 154.159 24.928 153.22 25.312C152.282 25.696 151.343 26.016 150.405 26.272C149.509 26.4853 148.805 26.656 148.293 26.784C147.994 26.8267 147.845 26.9547 147.845 27.168C147.887 27.3387 147.866 27.5307 147.781 27.744L147.333 28.448L146.949 29.344L146.629 29.92C146.33 30.176 146.223 30.368 146.309 30.496C146.394 30.624 146.543 30.6027 146.757 30.432C146.799 30.4747 146.821 30.5387 146.821 30.624C146.821 30.7947 146.778 31.008 146.693 31.264C146.607 31.4773 146.543 31.648 146.501 31.776C146.458 31.9467 146.458 32.032 146.501 32.032C146.586 31.9893 146.629 32.0747 146.629 32.288L146.693 33.184C146.949 33.9947 147.525 34.464 148.421 34.592C148.506 34.592 148.591 34.6133 148.677 34.656C148.805 34.656 148.911 34.656 148.997 34.656C149.765 34.656 150.17 34.592 150.213 34.464C150.298 34.336 150.405 34.2507 150.533 34.208C150.917 34.1227 151.237 34.0373 151.493 33.952C151.791 33.8667 152.09 33.7387 152.389 33.568C152.901 33.3547 153.391 33.0773 153.861 32.736C154.33 32.3947 154.821 32.0533 155.333 31.712L155.973 31.264C156.015 31.1787 156.015 31.1147 155.973 31.072C155.93 31.0293 155.93 30.9867 155.973 30.944C156.058 30.9013 156.122 30.9013 156.165 30.944C156.25 30.944 156.314 30.9227 156.357 30.88C156.442 30.8373 156.527 30.7733 156.613 30.688C156.698 30.56 156.783 30.4533 156.869 30.368C156.954 30.2827 156.997 30.1973 156.997 30.112C157.039 30.0267 157.103 29.9413 157.189 29.856C157.53 29.5147 157.871 29.152 158.213 28.768C158.597 28.384 158.917 28.0427 159.173 27.744C159.471 27.3173 159.706 27.104 159.877 27.104C159.962 27.104 160.005 27.1467 160.005 27.232C160.005 27.4453 159.855 27.7653 159.557 28.192C158.831 29.2587 157.999 30.304 157.061 31.328C156.122 32.3093 155.098 33.2053 153.989 34.016C153.178 34.5707 152.218 35.0613 151.109 35.488C149.999 35.9147 148.89 36.128 147.781 36.128ZM148.741 25.824C149.381 25.7813 150.213 25.6107 151.237 25.312C152.261 24.9707 153.114 24.5227 153.797 23.968C154.522 23.3707 154.885 22.7093 154.885 21.984C154.885 21.3013 154.522 20.64 153.797 20C153.199 20.4267 152.538 21.0453 151.812 21.856C151.13 22.624 150.511 23.392 149.957 24.16C149.402 24.8853 148.997 25.44 148.741 25.824ZM153.392 39.648C153.136 39.648 153.008 39.52 153.008 39.264C153.008 39.008 153.093 38.7307 153.264 38.432C153.733 37.7067 154.203 37.1093 154.672 36.64C155.141 36.2133 155.781 35.5733 156.592 34.72L156.848 34.784C157.019 34.784 157.189 34.7413 157.36 34.656C157.488 34.5707 157.637 34.5067 157.808 34.464C157.979 34.2507 158.171 33.9947 158.384 33.696C158.597 33.3973 158.789 33.1413 158.96 32.928C159.045 32.8427 159.131 32.8 159.216 32.8C159.301 32.8 159.365 32.7787 159.408 32.736C159.451 32.6933 159.451 32.6507 159.408 32.608C159.365 32.5653 159.365 32.5227 159.408 32.48C160.219 31.4133 161.115 30.2827 162.096 29.088C163.12 27.8507 164.165 26.6987 165.232 25.632C165.104 25.0773 164.976 24.544 164.848 24.032C164.72 23.52 164.613 22.9867 164.528 22.432C164.528 22.3467 164.485 22.304 164.4 22.304C164.357 22.2613 164.336 22.2187 164.336 22.176L164.4 21.728C164.357 21.6 164.272 21.5573 164.144 21.6C164.059 21.6427 163.995 21.6 163.952 21.472C163.867 21.2587 163.76 21.088 163.632 20.96C163.504 20.832 163.376 20.704 163.248 20.576C163.163 20.4907 163.12 20.4267 163.12 20.384C163.12 20.3413 163.077 20.2987 162.992 20.256C162.864 20.1707 162.757 20.1707 162.672 20.256C162.587 20.3413 162.501 20.3627 162.416 20.32C162.288 20.2773 162.117 20.256 161.904 20.256C161.435 20.256 161.093 20.4267 160.88 20.768C160.667 21.1093 160.475 21.28 160.304 21.28C160.176 21.28 160.112 21.1947 160.112 21.024C160.112 20.8533 160.176 20.64 160.304 20.384C160.475 20.128 160.752 19.8933 161.136 19.68C161.392 19.5093 161.669 19.3173 161.968 19.104C162.267 18.8907 162.587 18.7413 162.928 18.656C163.056 18.6133 163.184 18.592 163.312 18.592C163.44 18.5493 163.568 18.528 163.696 18.528C164.123 18.528 164.507 18.6133 164.848 18.784C165.232 18.9547 165.552 19.2747 165.808 19.744C165.893 19.9147 165.979 20.3413 166.064 21.024C166.192 21.664 166.299 22.304 166.384 22.944C166.427 23.2 166.469 23.456 166.512 23.712C166.555 23.9253 166.597 24.1387 166.64 24.352C167.323 23.712 168.069 23.008 168.88 22.24C169.733 21.4293 170.587 20.6613 171.44 19.936C172.293 19.2107 173.083 18.6773 173.808 18.336C174.021 18.2507 174.235 18.144 174.448 18.016C174.704 17.888 174.917 17.824 175.088 17.824C175.259 17.824 175.365 17.888 175.408 18.016C175.493 18.144 175.579 18.1867 175.664 18.144C175.749 18.144 175.771 18.1013 175.728 18.016C175.685 17.888 175.685 17.824 175.728 17.824C175.813 17.7813 175.877 17.7173 175.92 17.632C175.963 17.5467 176.027 17.504 176.112 17.504H176.176C176.261 17.504 176.368 17.5253 176.496 17.568C176.624 17.6107 176.731 17.6107 176.816 17.568C176.859 17.5253 176.816 17.4613 176.688 17.376C176.603 17.2907 176.581 17.2267 176.624 17.184C177.051 17.0133 177.563 16.9067 178.16 16.864C178.757 16.7787 179.248 16.736 179.632 16.736C180.357 16.736 180.891 16.9493 181.232 17.376C181.616 17.76 181.851 18.1867 181.936 18.656C181.979 18.8267 181.893 18.976 181.68 19.104C181.467 19.1893 181.317 19.1253 181.232 18.912C181.189 18.6987 180.976 18.528 180.592 18.4C180.251 18.272 179.845 18.2507 179.376 18.336C177.925 18.464 176.432 18.912 174.896 19.68C173.36 20.448 171.888 21.3653 170.48 22.432C169.115 23.456 167.856 24.5013 166.704 25.568C166.747 25.7387 166.789 25.888 166.832 26.016C166.917 26.144 166.981 26.3147 167.024 26.528C167.067 26.528 167.067 26.592 167.024 26.72C167.024 26.8053 167.024 26.8693 167.024 26.912C167.024 26.9547 167.045 26.9973 167.088 27.04C167.173 27.04 167.216 27.0613 167.216 27.104L167.088 28.128C167.259 28.6827 167.408 28.96 167.536 28.96C167.664 28.96 167.813 29.2373 167.984 29.792C168.027 29.8347 168.027 29.8773 167.984 29.92C167.941 29.9627 167.941 30.0267 167.984 30.112C168.027 30.2827 168.112 30.3893 168.24 30.432C168.368 30.432 168.453 30.6027 168.496 30.944C168.496 31.072 168.624 31.1147 168.88 31.072C169.136 31.0293 169.264 31.0507 169.264 31.136C169.264 31.3067 169.221 31.392 169.136 31.392C169.093 31.3493 169.115 31.4133 169.2 31.584C169.243 31.6693 169.285 31.6693 169.328 31.584C169.413 31.456 169.477 31.4347 169.52 31.52C169.691 31.776 169.819 32.0533 169.904 32.352C170.032 32.608 170.181 32.8427 170.352 33.056C170.779 33.7813 171.333 34.2293 172.016 34.4H172.336C172.763 34.4 173.168 34.3147 173.552 34.144L174.128 33.824C174.128 33.952 174.213 34.016 174.384 34.016C174.427 33.9733 174.491 33.8667 174.576 33.696C174.661 33.5253 174.725 33.44 174.768 33.44L175.536 33.12C175.621 32.8213 175.771 32.6293 175.984 32.544C175.856 32.416 175.92 32.3093 176.176 32.224H176.304C176.432 32.224 176.56 32.224 176.688 32.224C176.816 32.1813 176.88 32.0747 176.88 31.904C176.88 31.8187 176.923 31.6693 177.008 31.456C177.136 31.2427 177.243 31.136 177.328 31.136H177.52L177.712 31.008C177.669 30.88 177.691 30.8587 177.776 30.944C177.861 30.9867 177.968 30.9227 178.096 30.752L178.48 30.112C178.779 29.8133 178.992 29.664 179.12 29.664C179.248 29.664 179.312 29.7493 179.312 29.92C179.312 30.2613 179.12 30.624 178.736 31.008C177.669 32.16 176.475 33.248 175.152 34.272C173.872 35.2533 172.72 35.744 171.696 35.744C170.373 35.744 169.328 35.4667 168.56 34.912C167.792 34.3147 167.152 33.3547 166.64 32.032C166.341 31.2213 166.107 30.3467 165.936 29.408C165.808 28.4693 165.637 27.5947 165.424 26.784C164.357 27.8933 163.333 29.0453 162.352 30.24C161.413 31.392 160.56 32.4587 159.792 33.44L160.112 33.376C160.667 32.992 161.243 32.6293 161.84 32.288C162.48 31.9467 163.077 31.6693 163.632 31.456H163.76C163.931 31.456 164.016 31.5413 164.016 31.712C164.059 31.8827 163.995 32.0107 163.824 32.096C163.269 32.2667 162.651 32.544 161.968 32.928C161.285 33.312 160.645 33.7173 160.048 34.144C160.005 34.1867 159.941 34.2507 159.856 34.336C159.813 34.4213 159.749 34.5067 159.664 34.592C159.536 34.6773 159.387 34.8267 159.216 35.04C159.045 35.2107 158.96 35.3173 158.96 35.36C158.917 35.4453 158.853 35.488 158.768 35.488C158.683 35.4453 158.533 35.488 158.32 35.616C158.277 35.6587 158.235 35.744 158.192 35.872C158.149 35.9573 158.107 36.0427 158.064 36.128C157.979 36.256 157.893 36.3413 157.808 36.384C157.68 36.4267 157.616 36.4693 157.616 36.512C157.573 36.64 157.509 36.704 157.424 36.704C157.296 36.704 157.189 36.7467 157.104 36.832L156.976 36.96C156.976 37.0027 156.997 37.0453 157.04 37.088C157.04 37.1733 156.997 37.2587 156.912 37.344C156.869 37.3867 156.827 37.408 156.784 37.408C156.741 37.408 156.699 37.408 156.656 37.408L156.336 37.792C156.293 37.92 156.208 38.0053 156.08 38.048C155.909 38.1333 155.781 38.1973 155.696 38.24C155.611 38.2827 155.525 38.368 155.44 38.496C155.312 38.6667 155.205 38.7947 155.12 38.88C154.992 38.9653 154.864 39.008 154.736 39.008C154.608 39.0507 154.48 39.1147 154.352 39.2C154.011 39.4987 153.691 39.648 153.392 39.648ZM181.813 36.192C181.557 36.192 181.429 36.0427 181.429 35.744C181.429 35.5307 181.493 35.2747 181.621 34.976C181.962 34.2507 182.346 33.2267 182.773 31.904C183.242 30.5813 183.818 29.4507 184.501 28.512L187.701 21.92C187.445 21.92 187.189 21.984 186.933 22.112C186.72 22.24 186.613 22.3467 186.613 22.432C186.613 22.6027 186.378 22.7733 185.909 22.944C185.44 23.1147 185.184 23.2213 185.141 23.264C184.501 23.4347 183.904 23.6267 183.349 23.84C182.922 24.3093 182.496 24.7787 182.069 25.248C181.685 25.7173 181.322 26.1867 180.981 26.656C180.938 26.6987 180.896 26.72 180.853 26.72C180.469 27.1467 180.149 27.4667 179.893 27.68C179.637 27.8933 179.36 28.0853 179.061 28.256C178.89 28.384 178.72 28.4267 178.549 28.384C178.336 28.2987 178.314 28.2133 178.485 28.128C178.698 28.0427 179.04 27.744 179.509 27.232C179.978 26.72 180.341 26.336 180.597 26.08C180.81 25.952 180.874 25.952 180.789 26.08C180.746 26.208 180.81 26.1867 180.981 26.016L182.581 23.968L182.645 23.904C182.432 23.776 182.325 23.4347 182.325 22.88C182.325 22.4533 182.41 22.112 182.581 21.856C182.581 21.8133 182.624 21.792 182.709 21.792L184.053 21.408C184.181 21.408 184.266 21.3867 184.309 21.344C184.394 21.2587 184.48 21.152 184.565 21.024C184.693 20.8533 184.842 20.64 185.013 20.384L185.781 19.36L186.293 18.656C186.293 18.528 186.378 18.3787 186.549 18.208C186.762 17.9947 186.933 17.8453 187.061 17.76C187.232 17.504 187.338 17.312 187.381 17.184C187.466 17.0133 187.594 16.8 187.765 16.544C187.765 16.5013 187.829 16.48 187.957 16.48C188.085 16.4373 188.149 16.3947 188.149 16.352C188.192 15.9253 188.256 15.7333 188.341 15.776C188.469 15.776 188.533 15.712 188.533 15.584C188.533 15.456 188.618 15.3493 188.789 15.264L189.109 14.88C189.109 14.8373 189.173 14.752 189.301 14.624V14.56C189.301 14.4747 189.301 14.368 189.301 14.24C189.301 14.112 189.344 13.984 189.429 13.856C189.514 13.7707 189.578 13.728 189.621 13.728C189.664 13.728 189.685 13.728 189.685 13.728C189.685 13.6853 189.664 13.664 189.621 13.664C189.621 13.6213 189.621 13.6 189.621 13.6C189.621 13.4293 189.706 13.3227 189.877 13.28C190.048 13.2373 190.133 13.1733 190.133 13.088C190.218 12.4907 190.73 12.0427 191.669 11.744C192.608 11.4453 193.44 11.296 194.165 11.296C194.89 11.296 195.253 11.4027 195.253 11.616C195.253 11.7013 195.125 11.8507 194.869 12.064C194.741 12.1067 194.528 12.2987 194.229 12.64C193.93 12.9387 193.653 13.3013 193.397 13.728L192.885 14.496C192.842 14.5813 192.778 14.688 192.693 14.816C192.65 14.9013 192.586 14.9867 192.501 15.072C192.202 15.584 191.797 16.3093 191.285 17.248C190.816 18.144 190.304 19.1467 189.749 20.256L191.413 20.064C191.541 20.064 191.584 20.0853 191.541 20.128C191.541 20.1707 191.605 20.1707 191.733 20.128C191.946 20.128 192.096 20.1067 192.181 20.064C192.266 19.9787 192.416 19.9147 192.629 19.872C192.97 19.8293 193.354 19.808 193.781 19.808C194.25 19.7653 194.613 19.744 194.869 19.744C195.04 19.744 195.253 19.744 195.509 19.744C195.765 19.744 195.957 19.7653 196.085 19.808C196.17 19.808 196.192 19.8507 196.149 19.936C196.149 19.9787 196.17 20 196.213 20C196.298 20 196.362 19.9787 196.405 19.936C196.49 19.8933 196.576 19.872 196.661 19.872C196.704 19.8293 196.768 19.8293 196.853 19.872C196.981 19.872 197.066 19.872 197.109 19.872L197.749 20.064C198.005 20.1067 198.133 20.256 198.133 20.512C198.176 20.768 198.069 20.8533 197.813 20.768C197.642 20.6827 197.493 20.64 197.365 20.64H195.765C195.466 20.64 195.189 20.64 194.933 20.64C194.677 20.64 194.421 20.6613 194.165 20.704C194.08 20.7467 194.037 20.704 194.037 20.576C194.08 20.448 194.058 20.384 193.973 20.384C193.93 20.384 193.866 20.448 193.781 20.576C193.696 20.6613 193.632 20.704 193.589 20.704L193.269 20.896C192.586 21.0667 191.861 21.2587 191.093 21.472C190.325 21.6427 189.578 21.8347 188.853 22.048C188.213 23.3707 187.594 24.6293 186.997 25.824C186.442 26.976 186.016 27.872 185.717 28.512C185.632 28.768 185.589 28.9173 185.589 28.96C185.589 29.3013 185.781 29.472 186.165 29.472C186.421 29.472 186.677 29.408 186.933 29.28L187.573 29.024C188.597 28.0853 189.664 27.296 190.773 26.656C190.816 26.656 190.837 26.656 190.837 26.656C190.88 26.6133 190.922 26.592 190.965 26.592C191.093 26.592 191.178 26.6773 191.221 26.848C191.264 26.976 191.221 27.0827 191.093 27.168C189.856 27.8507 188.704 28.7253 187.637 29.792C187.594 29.8773 187.552 29.9627 187.509 30.048C187.466 30.1333 187.402 30.2187 187.317 30.304C187.232 30.3893 187.104 30.5387 186.933 30.752C186.805 30.9653 186.741 31.0933 186.741 31.136C186.698 31.264 186.634 31.3067 186.549 31.264C186.506 31.2213 186.378 31.2853 186.165 31.456C186.122 31.4987 186.08 31.584 186.037 31.712C186.037 31.84 186.016 31.9467 185.973 32.032C185.888 32.16 185.802 32.2667 185.717 32.352C185.632 32.3947 185.589 32.4373 185.589 32.48C185.546 32.6507 185.461 32.7573 185.333 32.8C185.248 32.8 185.162 32.8427 185.077 32.928C185.034 32.928 185.013 32.9493 185.013 32.992C185.013 33.376 184.97 33.5467 184.885 33.504C184.8 33.4613 184.736 33.504 184.693 33.632C184.522 33.8027 184.394 33.888 184.309 33.888C184.053 33.9733 183.946 34.0373 183.989 34.08C184.074 34.1227 184.138 34.1653 184.181 34.208C184.266 34.208 184.202 34.272 183.989 34.4C183.904 34.4427 183.818 34.5707 183.733 34.784C183.648 34.9547 183.562 35.0827 183.477 35.168C183.349 35.2533 183.221 35.3173 183.093 35.36C182.965 35.4027 182.858 35.488 182.773 35.616C182.389 36 182.069 36.192 181.813 36.192ZM185.461 21.152C185.632 21.1093 185.781 21.0667 185.909 21.024C186.08 20.9813 186.25 20.9173 186.421 20.832L188.341 20.512C188.853 19.488 189.301 18.5707 189.685 17.76C190.069 16.9067 190.346 16.288 190.517 15.904C190.517 15.904 190.474 15.8827 190.389 15.84C190.346 15.7547 190.325 15.6693 190.325 15.584C190.24 15.5413 190.133 15.4773 190.005 15.392C189.92 15.3067 189.834 15.2427 189.749 15.2L189.173 15.776L188.469 16.736C188.469 16.7787 188.405 16.8213 188.277 16.864C188.192 16.864 188.149 16.8853 188.149 16.928C188.149 17.056 188.085 17.184 187.957 17.312C187.872 17.44 187.786 17.4827 187.701 17.44L187.445 18.08C187.445 18.208 187.381 18.3147 187.253 18.4L186.805 18.976C186.805 19.0187 186.784 19.0613 186.741 19.104C186.741 19.104 186.741 19.1467 186.741 19.232C186.698 19.3173 186.634 19.424 186.549 19.552C186.464 19.68 186.357 19.808 186.229 19.936C186.186 19.936 186.165 19.9573 186.165 20C186.165 20 186.144 20 186.101 20L185.909 20.384C185.738 20.4693 185.632 20.512 185.589 20.512L185.525 20.64C185.525 20.896 185.504 21.0667 185.461 21.152ZM203.865 16.032C203.737 16.032 203.609 15.9893 203.481 15.904C203.396 15.8187 203.268 15.712 203.097 15.584C203.012 15.5413 202.905 15.4987 202.777 15.456C202.692 15.3707 202.649 15.2427 202.649 15.072C202.606 15.0293 202.521 15.008 202.393 15.008C202.18 15.008 202.073 14.8587 202.073 14.56C202.073 14.2187 202.244 13.984 202.585 13.856L202.905 13.6V13.664L203.161 13.344H203.289C203.545 13.344 203.716 13.216 203.801 12.96C203.929 12.704 204.185 12.5333 204.569 12.448C204.825 12.3627 205.038 12.384 205.209 12.512C205.38 12.64 205.593 12.704 205.849 12.704C206.105 12.704 206.382 12.6187 206.681 12.448L207.641 12.256C207.769 12.256 207.833 12.2987 207.833 12.384C207.833 12.4693 207.705 12.576 207.449 12.704C207.236 12.832 207.086 12.9387 207.001 13.024L206.937 13.088L206.873 13.216L206.617 13.536C206.361 13.8347 206.062 14.1973 205.721 14.624C205.422 15.008 205.102 15.328 204.761 15.584C204.377 15.8827 204.078 16.032 203.865 16.032ZM194.137 36.192C193.881 36.192 193.753 36.0427 193.753 35.744C193.753 35.5307 193.817 35.2747 193.945 34.976C194.286 34.2507 194.67 33.2267 195.097 31.904C195.566 30.5813 196.142 29.4507 196.825 28.512C197.294 27.5733 197.721 26.656 198.105 25.76C198.532 24.8213 198.937 23.8827 199.321 22.944C199.321 22.944 199.278 22.9227 199.193 22.88C199.15 22.7947 199.129 22.7093 199.129 22.624C198.873 22.4533 198.596 22.2187 198.297 21.92C198.041 21.5787 198.02 21.2373 198.233 20.896C198.318 20.8107 198.382 20.768 198.425 20.768C198.468 20.768 198.489 20.768 198.489 20.768C198.489 20.7253 198.468 20.704 198.425 20.704C198.425 20.6613 198.425 20.64 198.425 20.64C198.425 20.4693 198.51 20.3627 198.681 20.32C198.852 20.2773 198.937 20.2133 198.937 20.128C199.022 19.5307 199.534 19.0827 200.473 18.784C201.412 18.4853 202.244 18.336 202.969 18.336C203.694 18.336 204.057 18.4427 204.057 18.656C204.057 18.7413 203.929 18.8907 203.673 19.104C203.545 19.1893 203.332 19.3813 203.033 19.68C202.734 19.9787 202.457 20.3413 202.201 20.768L201.689 21.536C201.646 21.6213 201.582 21.728 201.497 21.856C201.454 21.9413 201.39 22.0267 201.305 22.112C200.622 23.3493 200.068 24.3947 199.641 25.248C199.214 26.1013 198.702 27.1893 198.105 28.512C198.02 28.768 197.977 28.9387 197.977 29.024C197.977 29.3227 198.148 29.472 198.489 29.472C198.745 29.472 199.001 29.408 199.257 29.28L199.897 29.024C200.921 28.0853 201.988 27.296 203.097 26.656C203.14 26.656 203.161 26.656 203.161 26.656C203.204 26.6133 203.246 26.592 203.289 26.592C203.417 26.592 203.502 26.6773 203.545 26.848C203.588 26.976 203.545 27.0827 203.417 27.168C202.18 27.8507 201.028 28.7253 199.961 29.792C199.918 29.8773 199.876 29.9627 199.833 30.048C199.79 30.1333 199.726 30.2187 199.641 30.304C199.556 30.3893 199.428 30.5387 199.257 30.752C199.129 30.9653 199.065 31.0933 199.065 31.136C199.022 31.264 198.958 31.3067 198.873 31.264C198.83 31.2213 198.702 31.2853 198.489 31.456C198.446 31.4987 198.404 31.584 198.361 31.712C198.361 31.84 198.34 31.9467 198.297 32.032C198.254 32.16 198.169 32.2667 198.041 32.352C197.956 32.3947 197.913 32.4373 197.913 32.48C197.87 32.6507 197.785 32.7573 197.657 32.8C197.572 32.8 197.486 32.8427 197.401 32.928C197.358 32.9707 197.358 33.0347 197.401 33.12C197.444 33.2053 197.422 33.2907 197.337 33.376C197.294 33.504 197.252 33.568 197.209 33.568C197.166 33.5253 197.102 33.5467 197.017 33.632C196.846 33.8027 196.718 33.888 196.633 33.888C196.377 33.9733 196.27 34.0373 196.313 34.08C196.398 34.1227 196.462 34.1653 196.505 34.208C196.59 34.208 196.526 34.272 196.313 34.4C196.228 34.4427 196.142 34.5707 196.057 34.784C195.972 34.9547 195.886 35.0827 195.801 35.168C195.673 35.2533 195.545 35.3173 195.417 35.36C195.332 35.4027 195.225 35.488 195.097 35.616C194.713 36 194.393 36.192 194.137 36.192ZM204.825 36.192C204.569 36.192 204.441 36.0427 204.441 35.744C204.441 35.5307 204.505 35.2747 204.633 34.976C204.974 34.2507 205.358 33.2267 205.785 31.904C206.254 30.5813 206.83 29.4507 207.513 28.512C207.726 28.0427 208.046 27.4667 208.473 26.784C208.942 26.0587 209.39 25.2053 209.817 24.224V23.904C209.817 23.776 209.817 23.6693 209.817 23.584C209.859 23.456 209.902 23.328 209.945 23.2C210.115 22.8587 210.265 22.624 210.393 22.496C210.563 22.368 210.734 22.1333 210.905 21.792C210.905 21.7067 210.905 21.6213 210.905 21.536C210.947 21.4507 210.99 21.3653 211.033 21.28C210.947 21.3653 210.926 21.3013 210.969 21.088C210.883 21.088 210.969 20.8747 211.225 20.448C211.395 20.064 211.523 19.8507 211.609 19.808H211.673C211.843 19.552 211.993 19.3387 212.121 19.168C212.249 18.9547 212.291 18.8267 212.249 18.784V18.656C212.249 18.3573 212.334 18.08 212.505 17.824C212.718 17.568 212.91 17.2907 213.081 16.992C213.209 16.8213 213.315 16.736 213.401 16.736C213.486 16.736 213.529 16.7573 213.529 16.8C213.571 16.8 213.614 16.8 213.657 16.8C213.785 16.8 213.849 16.6933 213.849 16.48C213.849 16.3947 213.827 16.288 213.785 16.16C213.785 16.032 213.763 15.8827 213.72 15.712C213.763 15.4987 213.934 15.328 214.233 15.2L214.425 15.136C214.638 14.24 214.894 13.6427 215.193 13.344C215.278 13.2587 215.363 13.1733 215.449 13.088C215.534 13.0027 215.619 12.9173 215.705 12.832C216.217 12.2773 216.601 11.68 216.857 11.04C216.942 10.8693 217.049 10.7413 217.177 10.656C217.347 10.528 217.497 10.3787 217.625 10.208C217.71 10.08 217.731 9.952 217.689 9.824C217.689 9.65333 217.71 9.504 217.753 9.376C217.966 9.03467 218.115 8.84267 218.201 8.8C218.286 8.75733 218.371 8.71467 218.457 8.672C218.585 8.58667 218.798 8.39467 219.097 8.096C219.225 7.88267 219.353 7.66933 219.481 7.456C219.651 7.24266 219.822 7.02933 219.993 6.816C220.249 6.51733 220.526 6.304 220.825 6.176C221.123 6.048 221.422 5.856 221.721 5.6C221.806 5.51466 221.849 5.38666 221.849 5.216C221.849 5.00266 221.891 4.85333 221.977 4.768C223.47 3.57333 225.07 2.57066 226.777 1.76C228.526 0.949332 229.87 0.543999 230.809 0.543999C231.15 0.543999 231.47 0.565332 231.769 0.607998C232.11 0.650664 232.43 0.714664 232.729 0.799999H232.857C233.07 0.799999 233.283 0.842665 233.497 0.927998C233.71 1.01333 233.902 1.09867 234.073 1.184C234.243 1.184 234.457 1.22666 234.713 1.312C234.926 1.39733 235.054 1.52533 235.097 1.696C235.139 1.86667 235.097 1.99467 234.969 2.08C234.926 2.12266 234.862 2.12266 234.777 2.08C234.691 2.03733 234.606 2.016 234.521 2.016C234.435 2.016 234.35 1.97333 234.265 1.888C234.179 1.80266 234.094 1.73867 234.009 1.696C233.838 1.696 233.646 1.71733 233.433 1.76C233.262 1.80266 233.07 1.824 232.857 1.824H232.665C232.366 1.824 232.153 1.78133 232.025 1.696C231.939 1.568 231.726 1.54667 231.385 1.632C231.342 1.632 231.214 1.65333 231.001 1.696C230.787 1.73867 230.638 1.76 230.553 1.76C229.017 2.144 227.673 2.784 226.521 3.68C225.369 4.53333 224.345 5.49333 223.449 6.56C222.595 7.62667 221.763 8.65066 220.953 9.632C220.569 10.4 220.185 11.0187 219.801 11.488C219.758 11.5307 219.715 11.5093 219.673 11.424C219.63 11.3387 219.587 11.3387 219.545 11.424C219.417 11.552 219.31 11.7653 219.225 12.064C219.182 12.32 219.097 12.5333 218.969 12.704C218.926 12.7467 218.883 12.7253 218.841 12.64C218.798 12.5547 218.734 12.5547 218.649 12.64C218.606 12.6827 218.542 12.8533 218.457 13.152C218.414 13.408 218.35 13.5787 218.265 13.664C217.753 14.3467 217.198 15.008 216.601 15.648C216.003 16.288 215.406 17.0347 214.809 17.888C213.955 19.2107 213.145 20.512 212.377 21.792C211.609 23.072 210.798 24.48 209.945 26.016C209.646 26.528 209.411 26.9973 209.241 27.424C209.113 27.808 208.963 28.1707 208.793 28.512C208.707 28.64 208.665 28.8107 208.665 29.024C208.665 29.3227 208.835 29.472 209.177 29.472C209.433 29.472 209.689 29.408 209.945 29.28L210.585 29.024C211.609 28.0853 212.675 27.296 213.785 26.656C213.827 26.656 213.849 26.656 213.849 26.656C213.891 26.6133 213.934 26.592 213.977 26.592C214.105 26.592 214.19 26.6773 214.233 26.848C214.275 26.976 214.233 27.0827 214.105 27.168C212.867 27.8507 211.715 28.7253 210.649 29.792C210.606 29.8773 210.563 29.9627 210.521 30.048C210.478 30.1333 210.414 30.2187 210.329 30.304C210.243 30.3893 210.115 30.5387 209.945 30.752C209.817 30.9653 209.753 31.0933 209.753 31.136C209.71 31.264 209.646 31.3067 209.561 31.264C209.518 31.2213 209.39 31.2853 209.177 31.456C209.134 31.4987 209.091 31.584 209.049 31.712C209.049 31.84 209.027 31.9467 208.985 32.032C208.942 32.16 208.857 32.2667 208.729 32.352C208.643 32.3947 208.601 32.4373 208.601 32.48C208.558 32.6507 208.473 32.7573 208.345 32.8C208.259 32.8 208.174 32.8427 208.089 32.928C208.046 32.9707 208.046 33.0347 208.089 33.12C208.131 33.2053 208.11 33.2907 208.025 33.376C207.982 33.504 207.939 33.568 207.897 33.568C207.854 33.5253 207.79 33.5467 207.705 33.632C207.534 33.8027 207.406 33.888 207.321 33.888C207.065 33.9733 206.958 34.0373 207.001 34.08C207.086 34.1227 207.15 34.1653 207.193 34.208C207.278 34.208 207.214 34.272 207.001 34.4C206.915 34.4427 206.83 34.5707 206.745 34.784C206.659 34.9547 206.574 35.0827 206.489 35.168C206.361 35.2533 206.233 35.3173 206.105 35.36C206.019 35.4027 205.913 35.488 205.785 35.616C205.401 36 205.081 36.192 204.825 36.192ZM219.343 36.128C218.276 36.128 217.338 35.8293 216.527 35.232C215.716 34.6347 215.311 33.6107 215.311 32.16C215.311 31.6053 215.375 31.0507 215.503 30.496C215.631 29.8987 215.78 29.3227 215.951 28.768C216.036 28.2133 216.164 27.7227 216.335 27.296C216.378 27.1253 216.399 27.04 216.399 27.04C216.442 26.9973 216.548 26.9333 216.719 26.848L217.231 26.08V25.824C217.188 25.824 217.167 25.824 217.167 25.824C217.167 25.7813 217.167 25.76 217.167 25.76C217.167 25.632 217.274 25.4827 217.487 25.312C217.7 25.1413 217.807 25.056 217.807 25.056C217.85 24.8427 217.914 24.736 217.999 24.736C218.084 24.736 218.191 24.672 218.319 24.544H219.023V24.416C219.023 24.2027 218.916 24.1173 218.703 24.16C218.532 24.16 218.447 24.1387 218.447 24.096C218.447 24.0533 218.511 23.968 218.639 23.84C218.81 23.6693 218.916 23.5627 218.959 23.52C219.087 23.3493 219.194 23.2 219.279 23.072C219.364 22.9013 219.492 22.7733 219.663 22.688C220.431 21.7493 220.9 21.152 221.071 20.896C221.284 20.64 221.498 20.448 221.711 20.32C221.796 20.32 221.86 20.3627 221.903 20.448C221.988 20.4907 221.988 20.5547 221.903 20.64C221.988 20.768 222.052 20.7893 222.095 20.704C222.18 20.6187 222.223 20.576 222.223 20.576L222.479 20.448C222.394 20.3627 222.351 20.256 222.351 20.128C222.351 19.9147 222.394 19.744 222.479 19.616C222.564 19.4453 222.714 19.2747 222.927 19.104C223.183 18.9333 223.311 18.8267 223.311 18.784C223.567 18.6987 223.759 18.6133 223.887 18.528C224.058 18.4427 224.228 18.4 224.399 18.4C224.698 18.4 224.996 18.5067 225.295 18.72C226.106 19.1467 226.788 19.5733 227.343 20C227.898 20.4267 228.175 21.024 228.175 21.792C228.175 22.6027 227.834 23.3067 227.151 23.904C226.511 24.4587 225.722 24.928 224.783 25.312C223.844 25.696 222.906 26.016 221.967 26.272C221.071 26.4853 220.367 26.656 219.855 26.784C219.556 26.8267 219.407 26.9547 219.407 27.168C219.45 27.3387 219.428 27.5307 219.343 27.744L218.895 28.448L218.511 29.344L218.191 29.92C217.892 30.176 217.786 30.368 217.871 30.496C217.956 30.624 218.106 30.6027 218.319 30.432C218.362 30.4747 218.383 30.5387 218.383 30.624C218.383 30.7947 218.34 31.008 218.255 31.264C218.17 31.4773 218.106 31.648 218.063 31.776C218.02 31.9467 218.02 32.032 218.063 32.032C218.148 31.9893 218.191 32.0747 218.191 32.288L218.255 33.184C218.511 33.9947 219.087 34.464 219.983 34.592C220.068 34.592 220.154 34.6133 220.239 34.656C220.367 34.656 220.474 34.656 220.559 34.656C221.327 34.656 221.732 34.592 221.775 34.464C221.86 34.336 221.967 34.2507 222.095 34.208C222.479 34.1227 222.799 34.0373 223.055 33.952C223.354 33.8667 223.652 33.7387 223.951 33.568C224.463 33.3547 224.954 33.0773 225.423 32.736C225.892 32.3947 226.383 32.0533 226.895 31.712L227.535 31.264C227.578 31.1787 227.578 31.1147 227.535 31.072C227.492 31.0293 227.492 30.9867 227.535 30.944C227.62 30.9013 227.684 30.9013 227.727 30.944C227.812 30.944 227.876 30.9227 227.919 30.88C228.004 30.8373 228.09 30.7733 228.175 30.688C228.26 30.56 228.346 30.4533 228.431 30.368C228.516 30.2827 228.559 30.1973 228.559 30.112C228.602 30.0267 228.666 29.9413 228.751 29.856C229.092 29.5147 229.434 29.152 229.775 28.768C230.159 28.384 230.479 28.0427 230.735 27.744C231.034 27.3173 231.268 27.104 231.439 27.104C231.524 27.104 231.567 27.1467 231.567 27.232C231.567 27.4453 231.418 27.7653 231.119 28.192C230.394 29.2587 229.562 30.304 228.623 31.328C227.684 32.3093 226.66 33.2053 225.551 34.016C224.74 34.5707 223.78 35.0613 222.671 35.488C221.562 35.9147 220.452 36.128 219.343 36.128ZM220.303 25.824C220.943 25.7813 221.775 25.6107 222.799 25.312C223.823 24.9707 224.676 24.5227 225.359 23.968C226.084 23.3707 226.447 22.7093 226.447 21.984C226.447 21.3013 226.084 20.64 225.359 20C224.762 20.4267 224.1 21.0453 223.375 21.856C222.692 22.624 222.074 23.392 221.519 24.16C220.964 24.8853 220.559 25.44 220.303 25.824Z" fill="black"/>
</svg>
